<svg width="504" height="447" viewBox="0 0 504 447" fill="none" xmlns="http://www.w3.org/2000/svg">
<g clip-path="url(#clip0)">
<path opacity="0.1" d="M225.791 172.947C206.093 166.566 185.266 161.216 163.981 161.768C132.689 162.581 102.602 177.177 87.7629 198.75C75.2199 217.031 73.5457 238.517 68.0704 258.845C61.3244 283.889 48.5197 307.656 34.8532 330.899C27.5128 343.383 19.7689 356.129 18.4928 369.847C16.7422 388.892 28.2709 407.932 46.4473 420.694C64.6238 433.457 88.81 440.258 113.111 441.847C126.041 442.687 139.555 442.038 151.067 437.376C163.245 432.463 172.15 423.473 184.377 418.615C195.709 414.117 208.917 413.538 221.63 414.199C238.092 415.032 254.397 417.829 270.198 422.529C287.917 427.834 304.381 435.471 322.061 440.853C339.741 446.236 359.504 449.282 377.621 444.953C394.63 440.892 408.122 430.88 420.289 420.738C439.896 404.436 458.126 386.543 474.797 367.243C485.785 354.475 496.022 340.992 500.93 326.074C510.304 297.547 497.745 265.248 469.643 245.602C446.362 229.319 415.043 222.13 384.372 217.763C356.401 213.74 324.041 213.341 298.333 203.095C273.814 193.297 251.509 181.277 225.791 172.947Z" fill="#5BBE0D"/>
<path opacity="0.1" d="M476.88 270.16C483.84 270.16 489.483 269.386 489.483 268.43C489.483 267.474 483.84 266.7 476.88 266.7C469.919 266.7 464.277 267.474 464.277 268.43C464.277 269.386 469.919 270.16 476.88 270.16Z" fill="#5BBE0D"/>
<path opacity="0.1" d="M428.6 275.062C435.561 275.062 441.203 274.288 441.203 273.332C441.203 272.376 435.561 271.602 428.6 271.602C421.64 271.602 415.997 272.376 415.997 273.332C415.997 274.288 421.64 275.062 428.6 275.062Z" fill="#5BBE0D"/>
<path opacity="0.1" d="M371.731 268.431C378.692 268.431 384.334 267.656 384.334 266.7C384.334 265.744 378.692 264.97 371.731 264.97C364.771 264.97 359.128 265.744 359.128 266.7C359.128 267.656 364.771 268.431 371.731 268.431Z" fill="#5BBE0D"/>
<path opacity="0.1" d="M447.922 288.518C452.87 288.518 456.882 287.966 456.882 287.284C456.882 286.603 452.87 286.051 447.922 286.051C442.973 286.051 438.962 286.603 438.962 287.284C438.962 287.966 442.973 288.518 447.922 288.518Z" fill="#5BBE0D"/>
<path opacity="0.1" d="M397.815 287.285C402.764 287.285 406.775 286.732 406.775 286.051C406.775 285.37 402.764 284.817 397.815 284.817C392.867 284.817 388.855 285.37 388.855 286.051C388.855 286.732 392.867 287.285 397.815 287.285Z" fill="#5BBE0D"/>
<path d="M428.328 272.939C428.328 272.939 446.008 214.935 425.563 191.703C410.293 174.323 392.907 176.419 385.136 178.553C383.124 179.089 381.253 180.057 379.652 181.388C378.051 182.72 376.759 184.385 375.865 186.266C373.138 192.135 373.64 201.66 392.825 212.779C424.952 231.399 426.953 256.94 426.953 256.94L428.328 272.939Z" fill="#5BBE0D"/>
<path d="M387.901 186.78C387.901 186.78 440.014 203.09 428.328 272.94" stroke="#565987" stroke-miterlimit="10"/>
<path d="M418.331 192.626C418.331 192.626 411.154 197.468 413.423 204.739" stroke="#565987" stroke-miterlimit="10"/>
<path d="M393.131 196.933C393.131 196.933 397.494 192.468 402.854 194.929" stroke="#565987" stroke-miterlimit="10"/>
<path d="M413.729 219.395C413.729 219.395 421.429 215.487 423.419 220.383" stroke="#565987" stroke-miterlimit="10"/>
<path d="M432.788 227.55C432.788 227.55 427.002 227.092 426.899 229.859" stroke="#565987" stroke-miterlimit="10"/>
<path d="M429.042 273.403C429.042 273.403 408.319 231.246 402.652 232.168C399.926 232.605 398.704 235.269 398.142 237.938C397.444 241.393 397.839 244.98 399.271 248.2C402.211 254.947 410.102 267.759 429.042 273.403Z" fill="#5BBE0D"/>
<path d="M402.805 240.171C402.805 240.171 424.537 271.711 428.736 273.098" stroke="#565987" stroke-miterlimit="10"/>
<path d="M400.809 245.095H405.881" stroke="#565987" stroke-miterlimit="10"/>
<path d="M406.884 256.634L414.835 256.972" stroke="#565987" stroke-miterlimit="10"/>
<path d="M411.722 247.404L410.86 251.547" stroke="#565987" stroke-miterlimit="10"/>
<path d="M420.175 260.019L420.022 263.785" stroke="#565987" stroke-miterlimit="10"/>
<path d="M428.431 273.403C428.431 273.403 449.154 231.246 454.821 232.168C457.547 232.605 458.769 235.269 459.331 237.938C460.029 241.393 459.634 244.98 458.202 248.2C455.262 254.947 447.371 267.759 428.431 273.403Z" fill="#5BBE0D"/>
<path d="M454.668 240.171C454.668 240.171 432.936 271.711 428.737 273.098" stroke="#565987" stroke-miterlimit="10"/>
<path d="M456.664 245.095H451.592" stroke="#565987" stroke-miterlimit="10"/>
<path d="M450.589 256.634L442.637 256.972" stroke="#565987" stroke-miterlimit="10"/>
<path d="M445.751 247.404L446.613 251.547" stroke="#565987" stroke-miterlimit="10"/>
<path d="M437.293 260.019L437.451 263.785" stroke="#565987" stroke-miterlimit="10"/>
<path d="M392.88 283.251C392.318 282.789 391.907 282.169 391.702 281.471C391.611 281.12 391.643 280.748 391.793 280.417C391.943 280.086 392.201 279.817 392.525 279.653C393.283 279.364 394.091 279.888 394.707 280.423C395.323 280.958 396.021 281.553 396.823 281.444C396.411 281.069 396.103 280.594 395.929 280.065C395.755 279.536 395.721 278.971 395.83 278.425C395.864 278.199 395.958 277.986 396.103 277.808C396.523 277.361 397.286 277.557 397.788 277.907C399.386 279.037 399.833 281.209 399.844 283.163C399.922 282.438 399.922 281.706 399.844 280.98C399.813 280.618 399.871 280.255 400.012 279.921C400.154 279.587 400.375 279.293 400.657 279.064C401.035 278.856 401.463 278.754 401.894 278.769C402.251 278.718 402.615 278.743 402.961 278.842C403.308 278.941 403.63 279.111 403.907 279.342C404.512 279.997 404.354 281.095 403.825 281.815C403.23 282.475 402.527 283.029 401.747 283.453C401.15 283.807 400.641 284.292 400.258 284.872C400.216 284.953 400.179 285.037 400.149 285.123H395.645C394.643 284.626 393.713 283.997 392.88 283.251V283.251Z" fill="#5BBE0D"/>
<path d="M471.775 266.269C471.211 265.81 470.8 265.189 470.598 264.489C470.507 264.139 470.539 263.767 470.689 263.437C470.839 263.108 471.097 262.839 471.421 262.677C472.179 262.388 472.986 262.912 473.602 263.441C474.219 263.971 474.922 264.577 475.724 264.462C475.31 264.089 475.001 263.614 474.826 263.085C474.651 262.556 474.616 261.99 474.726 261.443C474.759 261.217 474.855 261.005 475.004 260.832C475.424 260.384 476.182 260.575 476.684 260.93C478.281 262.055 478.729 264.205 478.74 266.187C478.82 265.461 478.82 264.729 478.74 264.004C478.708 263.642 478.766 263.278 478.908 262.944C479.049 262.61 479.271 262.316 479.552 262.088C479.933 261.885 480.359 261.785 480.79 261.798C481.145 261.742 481.508 261.762 481.854 261.856C482.201 261.95 482.524 262.116 482.802 262.344C483.413 262.994 483.255 264.091 482.721 264.811C482.13 265.484 481.427 266.049 480.643 266.482C480.045 266.836 479.536 267.321 479.154 267.901C479.109 267.981 479.073 268.065 479.045 268.152H474.54C473.539 267.65 472.609 267.017 471.775 266.269V266.269Z" fill="#5BBE0D"/>
<path d="M445.479 283.251C444.917 282.789 444.506 282.169 444.301 281.471C444.21 281.12 444.242 280.748 444.392 280.417C444.541 280.086 444.8 279.817 445.124 279.653C445.882 279.364 446.689 279.888 447.306 280.423C447.922 280.958 448.62 281.553 449.422 281.444C449.009 281.07 448.701 280.595 448.526 280.066C448.351 279.537 448.316 278.972 448.424 278.425C448.461 278.199 448.557 277.987 448.702 277.808C449.122 277.361 449.885 277.557 450.387 277.907C451.985 279.037 452.432 281.209 452.443 283.163C452.53 282.439 452.539 281.707 452.47 280.98C452.439 280.618 452.497 280.255 452.638 279.921C452.78 279.587 453.001 279.293 453.283 279.064C453.661 278.856 454.089 278.754 454.521 278.769C454.877 278.718 455.241 278.743 455.588 278.842C455.934 278.941 456.256 279.111 456.533 279.342C457.138 279.997 456.98 281.095 456.451 281.815C455.856 282.475 455.154 283.029 454.373 283.453C453.776 283.807 453.267 284.292 452.885 284.872C452.842 284.953 452.805 285.037 452.775 285.123H448.271C447.26 284.628 446.32 283.999 445.479 283.251V283.251Z" fill="#5BBE0D"/>
<path d="M370.913 248.926C370.913 248.926 369.223 251.137 371.693 254.472C374.164 257.808 376.192 260.63 375.374 262.709C375.374 262.709 371.649 256.514 368.617 256.426C365.585 256.339 367.576 252.655 370.913 248.926Z" fill="#5BBE0D"/>
<path opacity="0.1" d="M370.913 248.926C370.764 249.139 370.646 249.373 370.564 249.62C367.608 253.097 366.032 256.345 368.874 256.426C371.524 256.503 374.703 261.241 375.461 262.431C375.461 262.524 375.407 262.617 375.374 262.704C375.374 262.704 371.649 256.508 368.617 256.421C365.585 256.334 367.576 252.655 370.913 248.926Z" fill="black"/>
<path d="M367.772 251.743C367.772 252.524 367.859 253.152 367.968 253.152C368.077 253.152 368.159 252.524 368.159 251.743C368.159 250.963 368.05 251.334 367.946 251.334C367.843 251.334 367.772 250.968 367.772 251.743Z" fill="#FFD037"/>
<path d="M366.692 252.671C367.374 253.048 367.974 253.271 368.023 253.179C368.072 253.086 367.565 252.704 366.883 252.333C366.201 251.961 366.469 252.229 366.414 252.333C366.36 252.436 366.011 252.3 366.692 252.671Z" fill="#FFD037"/>
<path d="M379.83 248.926C379.83 248.926 381.52 251.137 379.05 254.472C376.579 257.808 374.551 260.63 375.374 262.709C375.374 262.709 379.093 256.514 382.126 256.426C385.158 256.339 383.167 252.655 379.83 248.926Z" fill="#5BBE0D"/>
<path opacity="0.1" d="M379.83 248.926C379.979 249.139 380.097 249.373 380.179 249.62C383.135 253.097 384.711 256.345 381.869 256.426C379.219 256.503 376.04 261.241 375.281 262.431C375.307 262.524 375.338 262.615 375.374 262.704C375.374 262.704 379.093 256.508 382.126 256.421C385.158 256.334 383.167 252.655 379.83 248.926Z" fill="black"/>
<path d="M382.971 251.743C382.971 252.524 382.884 253.152 382.775 253.152C382.666 253.152 382.584 252.524 382.584 251.743C382.584 250.963 382.693 251.334 382.796 251.334C382.9 251.334 382.971 250.968 382.971 251.743Z" fill="#FFD037"/>
<path d="M384.051 252.671C383.369 253.048 382.769 253.271 382.72 253.179C382.671 253.086 383.178 252.704 383.86 252.333C384.541 251.961 384.274 252.229 384.329 252.333C384.383 252.436 384.732 252.3 384.051 252.671Z" fill="#FFD037"/>
<path d="M382.431 262.42C382.431 262.42 377.714 262.278 376.29 261.263C374.867 260.248 369.026 259.036 368.655 260.663C368.285 262.289 361.566 268.752 366.889 268.796C372.211 268.84 379.279 267.966 380.697 267.099C382.115 266.231 382.431 262.42 382.431 262.42Z" fill="#A8A8A8"/>
<path opacity="0.2" d="M366.812 268.228C372.14 268.272 379.197 267.399 380.62 266.531C381.711 265.876 382.131 263.507 382.256 262.415H382.409C382.409 262.415 382.115 266.236 380.691 267.093C379.268 267.95 372.217 268.834 366.883 268.791C365.345 268.791 364.816 268.245 364.844 267.421C365.078 267.917 365.667 268.223 366.812 268.228Z" fill="black"/>
<path opacity="0.1" d="M70.3445 44.8432C76.8592 44.8432 82.1404 39.557 82.1404 33.0361C82.1404 26.5152 76.8592 21.229 70.3445 21.229C63.8298 21.229 58.5486 26.5152 58.5486 33.0361C58.5486 39.557 63.8298 44.8432 70.3445 44.8432Z" fill="#5BBE0D"/>
<path opacity="0.1" d="M274.365 26.207C280.879 26.207 286.161 20.9208 286.161 14.3999C286.161 7.879 280.879 2.59277 274.365 2.59277C267.85 2.59277 262.569 7.879 262.569 14.3999C262.569 20.9208 267.85 26.207 274.365 26.207Z" fill="#5BBE0D"/>
<path opacity="0.1" d="M461.501 72.8515C468.016 72.8515 473.297 67.5653 473.297 61.0444C473.297 54.5235 468.016 49.2373 461.501 49.2373C454.986 49.2373 449.705 54.5235 449.705 61.0444C449.705 67.5653 454.986 72.8515 461.501 72.8515Z" fill="#5BBE0D"/>
<path opacity="0.1" d="M19.7689 161.085C30.6869 161.085 39.5378 152.226 39.5378 141.297C39.5378 130.369 30.6869 121.51 19.7689 121.51C8.85083 121.51 0 130.369 0 141.297C0 152.226 8.85083 161.085 19.7689 161.085Z" fill="#5BBE0D"/>
<path opacity="0.1" d="M38.7197 258.796C49.6378 258.796 58.4886 249.936 58.4886 239.008C58.4886 228.079 49.6378 219.22 38.7197 219.22C27.8017 219.22 18.9509 228.079 18.9509 239.008C18.9509 249.936 27.8017 258.796 38.7197 258.796Z" fill="#5BBE0D"/>
<path opacity="0.1" d="M408.968 172.609C419.886 172.609 428.737 163.749 428.737 152.821C428.737 141.892 419.886 133.033 408.968 133.033C398.05 133.033 389.199 141.892 389.199 152.821C389.199 163.749 398.05 172.609 408.968 172.609Z" fill="#5BBE0D"/>
<path d="M245.494 189.874C244.796 189.94 244.087 189.907 243.394 190.016C242.232 190.248 241.122 190.694 240.122 191.332C235.16 194.159 230.475 198.046 228.419 203.374C228.25 203.701 228.196 204.076 228.266 204.438C228.388 204.736 228.588 204.996 228.845 205.191L230.775 206.949C231.019 207.203 231.31 207.406 231.631 207.549C232.152 207.686 232.701 207.669 233.213 207.5C238.519 206.283 244.158 204.88 247.883 200.906C249.65 199.023 251.28 196.43 253.882 196.359C254.972 196.359 255.992 196.779 257.066 196.905C258.141 197.031 259.433 196.572 259.689 195.524C259.773 195.003 259.712 194.469 259.515 193.979L257.912 188.635C257.475 187.172 253.074 187.096 251.607 187.358C249.372 187.745 247.866 189.656 245.494 189.874Z" fill="#65617D"/>
<path d="M264.385 219.979C264.309 221.808 264.456 223.658 264.156 225.47C263.892 226.899 263.435 228.286 262.798 229.592C261.817 231.691 260.571 233.656 259.09 235.438C257.71 237.076 256.057 238.615 254.012 239.259C251.967 239.903 249.453 239.439 248.177 237.714C247.136 236.311 247.086 234.439 247.163 232.687C247.348 228.38 248.024 224.013 249.955 220.159C250.784 218.522 251.836 216.96 252.682 215.306C254.449 211.873 255.458 207.801 258.506 205.432C260.419 206.316 262.464 206.879 264.559 207.097C265.372 207.184 267.695 207.238 267.968 208.281C268.153 208.985 266.626 210.956 266.332 211.649C265.168 214.279 264.507 217.105 264.385 219.979Z" fill="#65617D"/>
<path d="M242.767 141.254C243.422 142.925 244.251 144.562 244.403 146.342C244.512 147.433 244.403 148.525 244.403 149.617C244.495 151.113 244.744 152.595 245.145 154.038L248.183 166.484C248.635 168.346 249.088 170.256 248.853 172.156C248.695 173.422 248.237 174.65 248.243 175.922C248.301 176.887 248.454 177.843 248.701 178.777C249.276 181.663 249.118 184.647 248.243 187.456C248.153 187.668 248.121 187.9 248.15 188.128C248.226 188.483 248.57 188.701 248.881 188.87C252.151 190.661 255.716 191.85 259.406 192.38C262.736 184.45 265.063 176.133 266.332 167.625C267.106 162.472 267.482 157.254 268.475 152.139C268.498 151.843 268.623 151.565 268.829 151.353C269.2 151.042 269.762 151.238 270.198 151.446C275.771 154.128 281.133 157.23 286.237 160.725C288.032 158.399 289.294 155.706 289.934 152.838C290.573 149.969 290.576 146.995 289.94 144.125C289.299 141.651 288.384 139.257 287.213 136.986C285.965 134.223 284.41 131.61 282.578 129.196C278.531 124.119 272.598 120.877 266.49 118.677C262.776 117.334 258.953 116.341 255.136 115.325C252.998 114.752 249.415 112.885 247.337 114.337C245.156 115.85 243.705 119.6 242.811 121.98C241.707 124.932 241.106 128.048 241.033 131.199C240.943 134.633 241.533 138.05 242.767 141.254V141.254Z" fill="#3F3D56"/>
<path d="M286.608 156.26C285.468 157.505 286.428 159.492 286.21 161.173C286.067 161.932 285.796 162.661 285.408 163.329L280.189 173.586C279.317 175.125 278.663 176.779 278.248 178.499C277.533 182.2 279 186.359 277.124 189.629C276.519 190.682 275.581 191.589 275.33 192.779C275.145 193.646 275.33 194.553 275.237 195.431C275.112 196.463 274.561 197.391 274.256 198.385C274.017 199.339 273.848 200.31 273.749 201.289C273.087 205.463 270.903 209.244 267.619 211.9C265.737 213.497 263.321 214.32 260.856 214.204C258.424 213.996 256.008 212.342 255.512 209.952C255.343 209.138 255.376 208.232 254.869 207.572C254.149 206.627 252.633 206.589 251.94 205.623L254.623 201.201C255.458 199.831 256.308 198.401 256.445 196.802C256.608 194.842 255.665 192.888 256.003 190.95C256.292 189.285 257.486 187.899 257.846 186.25C258.293 184.203 257.399 182.134 256.914 180.093C255.725 175.065 257.055 169.825 258.381 164.808C260.142 158.171 261.947 151.429 265.514 145.561C272.631 149.398 279.175 153.083 286.608 156.26Z" fill="#3F3D56"/>
<path d="M286.673 52.2834C287.099 53.4407 286.87 54.7235 286.788 55.9517C286.597 58.681 287.175 61.4104 287.044 64.1779C286.913 66.9455 286.062 69.5874 285.474 72.2786C283.799 79.9589 284.203 87.9613 282.687 95.6745C280.816 105.227 276.034 114.125 275.09 123.819C274.79 126.898 274.828 130.195 273.143 132.793C263.13 128.381 253.664 122.816 244.938 116.21C246.857 101.957 248.755 87.6338 248.499 73.2557C248.375 71.5224 248.496 69.7802 248.859 68.0809C249.314 66.6534 249.967 65.2973 250.8 64.0523C252.911 60.6188 255.234 57.3218 257.552 54.0302C259.035 51.9232 260.638 49.7124 263.005 48.7244C265.372 47.7364 268.175 48.1785 270.755 48.648C273.859 49.2157 276.961 49.7834 280.058 50.3511C281.994 50.7059 285.844 50.029 286.673 52.2834Z" fill="#5BBE0D"/>
<path d="M211.999 106.897C210.726 105.623 209.339 104.47 207.854 103.453C209.79 101.095 209.408 97.6831 209.883 94.6645C210.271 92.7037 210.862 90.7884 211.644 88.9492C211.841 88.4307 212.119 87.8575 212.659 87.721C212.99 87.68 213.326 87.7329 213.629 87.8739C215.265 88.4525 218.679 88.4197 219.95 89.4787C221.482 90.767 220.081 93.4636 219.503 95.0739C219.094 96.1547 212.811 107.716 211.999 106.897Z" fill="#BE6F72"/>
<path d="M216.749 208.838C217.57 210.169 218.107 211.656 218.325 213.205C218.456 214.755 217.888 216.453 216.569 217.272C215.249 218.09 213.357 217.817 211.786 217.326C208.455 216.242 205.39 214.466 202.791 212.114C200.193 209.762 198.12 206.888 196.707 203.68C196.211 202.533 195.78 201.316 194.902 200.432C194.25 199.858 193.526 199.371 192.748 198.985C190.605 197.773 188.538 196.179 187.545 193.919C186.553 191.659 187 188.641 189.056 187.298C189.697 186.927 190.405 186.688 191.139 186.595C191.873 186.501 192.618 186.554 193.331 186.752C194.753 187.156 196.114 187.749 197.378 188.515C199.494 189.667 202.079 190.661 203.922 192.194C205.558 193.543 207.025 195.366 208.421 196.954C210.02 198.782 211.518 200.695 212.909 202.686C213.357 203.27 217.125 208.308 216.749 208.838Z" fill="#65617D"/>
<path d="M176.775 197.38C176.589 200.127 176.105 202.845 175.329 205.486C174.888 206.971 174.304 208.516 173.077 209.46C172.039 210.134 170.863 210.565 169.636 210.721C169.208 210.837 168.761 210.865 168.322 210.803C167.569 210.645 167.035 209.995 166.571 209.378C164.75 206.966 162.977 204.416 162.208 201.491C161.118 197.249 162.208 192.702 164.101 188.739C164.781 187.141 165.773 185.696 167.018 184.487C168.557 183.221 170.406 182.39 172.374 182.079C174.386 181.676 176.856 180.813 177.004 183.264C177.219 187.97 177.143 192.684 176.775 197.38V197.38Z" fill="#65617D"/>
<path d="M206.949 94.7793C210.712 96.728 214.889 99.2063 215.674 103.371C216.16 105.915 215.227 108.519 215.38 111.106C215.516 113.382 216.471 115.582 216.351 117.853C216.223 118.926 216.041 119.992 215.805 121.046C215.484 123.061 215.674 125.113 215.593 127.149C215.413 131.735 213.88 136.145 213.138 140.67C212.614 143.902 212.491 147.185 212.773 150.447C212.953 152.554 213.318 154.65 213.318 156.768C213.319 158.293 213.193 159.816 212.942 161.321C212.211 166.048 210.739 170.629 208.579 174.896C205.956 180.066 206.327 186.736 206.605 192.528C206.727 193.326 206.625 194.142 206.311 194.886C205.624 196.136 203.911 196.316 202.493 196.196C197.235 195.715 192.359 193.243 188.86 189.285C188.349 188.788 188.003 188.146 187.867 187.446C187.747 186.278 188.685 185.317 189.361 184.351C191.663 181.075 191.079 176.638 191.352 172.615C191.551 169.688 192.25 166.817 193.419 164.126C194.095 162.571 194.94 161.037 195.093 159.344C195.235 157.767 194.755 156.206 194.28 154.699L192.644 149.503C190.108 141.429 187.556 133.307 183.717 125.768C181.198 127.409 179.395 129.945 178.672 132.864C177.244 138.007 179.278 143.749 177.331 148.695C177.009 149.38 176.741 150.09 176.529 150.818C176.415 151.446 176.371 152.085 176.398 152.723C176.449 158.044 176.773 163.359 177.369 168.646C177.398 169.447 177.623 170.228 178.024 170.922C178.345 171.386 178.814 171.73 179.158 172.172C180.112 173.412 179.932 175.147 179.703 176.692L178.612 183.996C178.593 184.366 178.47 184.724 178.258 185.028C178.001 185.277 177.68 185.451 177.331 185.53C173.866 186.607 170.213 186.942 166.609 186.512C165.546 186.387 164.581 185.672 163.692 185.071C163.599 183.979 164.957 183.253 165.006 182.167C164.953 181.524 164.654 180.925 164.172 180.497C162.143 178.204 159.722 175.77 159.743 172.707C159.743 171.905 159.934 171.102 159.907 170.3C159.836 168.242 158.418 166.479 157.922 164.497C157.311 162.047 158.124 159.503 158.435 156.997C158.86 153.624 158.358 150.207 157.889 146.839L156.062 134.48C155.85 132.562 155.47 130.666 154.928 128.814C154.24 126.991 153.433 125.215 152.512 123.497C150.767 119.949 149.333 116.259 147.904 112.58C147.45 111.58 147.164 110.512 147.059 109.419C146.977 107.547 147.942 105.779 149.142 104.337C151.389 101.659 154.456 99.7983 157.867 99.0425C158.438 98.8833 159.037 98.859 159.618 98.9716C160.107 99.1339 160.565 99.3754 160.976 99.6866C165.192 102.447 169.989 104.192 174.991 104.786C179.993 105.379 185.065 104.806 189.808 103.109C190.354 103.524 191.363 103.344 191.99 103.049C193.74 102.247 195.169 100.909 196.707 99.774C199.57 97.6014 203.431 95.5381 206.949 94.7793Z" fill="#3F3D56"/>
<path d="M93.9144 234.963C94.204 235.8 94.6398 236.578 95.2015 237.261C97.1756 239.838 99.9296 241.896 101.2 244.904C101.468 245.548 101.664 246.225 101.909 246.88C102.656 248.857 103.872 250.622 105.454 252.022C106.66 253.024 107.971 253.893 109.364 254.615C111.775 255.93 114.381 257.12 117.119 257.049C117.669 257.037 118.217 256.971 118.755 256.853C119.607 256.676 120.429 256.374 121.193 255.957C122.954 254.986 124.465 253.086 124.116 251.105C124.045 250.727 123.926 250.36 123.761 250.013C123.472 249.461 123.138 248.933 122.763 248.435C121.842 247.158 120.893 245.848 119.546 245.029C118.03 244.101 116.121 243.872 114.758 242.726C114.22 242.238 113.755 241.676 113.378 241.055C112.142 239.154 111.221 237.066 110.651 234.871C110.237 233.233 109.959 231.437 108.764 230.236C107.57 229.035 105.928 228.762 104.336 228.489C103.798 228.378 103.249 228.325 102.7 228.331C101.92 228.358 101.113 228.582 100.382 228.216C99.6515 227.851 99.4061 227.332 98.5226 227.403C97.8194 227.498 97.1566 227.787 96.6085 228.238C94.5361 229.772 93.1619 232.501 93.9144 234.963Z" fill="#3F3D56"/>
<path d="M113.291 237.447C113.645 239.297 114.19 241.268 115.619 242.474C116.53 243.26 117.801 243.752 118.253 244.86C118.706 245.968 118.122 247.36 117.37 248.375C116.409 249.659 115.218 250.753 113.858 251.601C112.702 252.316 111.322 252.862 109.997 252.546C108.906 252.289 108.044 251.503 107.232 250.744C105.367 249.014 103.458 247.218 102.411 244.898C101.32 242.453 101.266 239.62 100.077 237.212C99.3843 235.809 98.3154 234.581 97.8955 233.075C97.7072 232.53 97.7072 231.938 97.8955 231.393C98.0988 231.004 98.4064 230.678 98.784 230.454C99.1615 230.229 99.5941 230.114 100.033 230.121C100.911 230.151 101.777 230.336 102.591 230.667C105.053 231.546 107.573 232.252 110.133 232.78C111.153 232.971 111.769 232.965 112.314 233.953C112.818 235.06 113.148 236.239 113.291 237.447V237.447Z" fill="#FBBEBE"/>
<path d="M119.617 253.091C119.212 253.71 118.926 254.399 118.771 255.122C118.643 255.684 118.622 256.266 118.711 256.836C119.563 256.659 120.385 256.358 121.149 255.941C122.911 254.969 124.421 253.07 124.072 251.088C124.002 250.71 123.883 250.343 123.718 249.996C123.457 249.938 123.186 249.949 122.932 250.029C122.677 250.108 122.448 250.253 122.267 250.449C121.252 251.187 120.357 252.078 119.617 253.091V253.091Z" fill="#FBBEBE"/>
<path d="M100.071 211.617C99.8341 212.128 99.7636 212.701 99.8696 213.254C100.121 214.346 101.238 214.974 102.247 215.471L111.84 220.165C112.505 220.473 113.154 220.818 113.781 221.197C115.418 222.201 116.705 223.62 118.101 224.92C119.497 226.219 121.051 227.436 122.9 227.895C124.745 228.299 126.674 228.046 128.353 227.179C129.258 226.728 130.098 226.157 130.851 225.482C131.502 224.91 132.104 224.283 132.651 223.609C133.12 223.114 133.455 222.507 133.627 221.846C133.807 220.847 133.31 219.865 132.732 219.041C132.399 218.565 132.035 218.113 131.642 217.687C128.004 213.664 122.043 211.579 116.917 210.76C114.878 210.432 112.942 209.668 110.978 209.046C109.015 208.423 106.937 207.954 104.898 208.243C102.858 208.533 100.851 209.706 100.071 211.617Z" fill="#3F3D56"/>
<path opacity="0.1" d="M100.071 211.617C99.8341 212.128 99.7636 212.701 99.8696 213.254C100.121 214.346 101.238 214.974 102.247 215.471L111.84 220.165C112.505 220.473 113.154 220.818 113.781 221.197C115.418 222.201 116.705 223.62 118.101 224.92C119.497 226.219 121.051 227.436 122.9 227.895C124.745 228.299 126.674 228.046 128.353 227.179C129.258 226.728 130.098 226.157 130.851 225.482C131.502 224.91 132.104 224.283 132.651 223.609C133.12 223.114 133.455 222.507 133.627 221.846C133.807 220.847 133.31 219.865 132.732 219.041C132.399 218.565 132.035 218.113 131.642 217.687C128.004 213.664 122.043 211.579 116.917 210.76C114.878 210.432 112.942 209.668 110.978 209.046C109.015 208.423 106.937 207.954 104.898 208.243C102.858 208.533 100.851 209.706 100.071 211.617Z" fill="black"/>
<path d="M124.078 214.613C124.815 215.442 125.422 216.379 125.877 217.392C126.287 218.055 126.433 218.848 126.286 219.613C126.072 220.129 125.728 220.58 125.288 220.923L124.334 221.808C124.046 222.108 123.71 222.358 123.341 222.55C122.819 222.746 122.262 222.83 121.705 222.796C120.424 222.796 119.044 222.796 118.002 222.026C116.579 221 116.323 218.876 116.972 217.244C117.621 215.612 118.979 214.379 120.347 213.276C121.46 212.375 123.298 213.789 124.078 214.613Z" fill="#FBBEBE"/>
<path d="M129.902 220.257C129.725 221.163 129.811 222.1 130.147 222.959C130.387 223.778 130.622 224.597 130.856 225.432C130.856 225.432 130.856 225.432 130.856 225.465C131.508 224.893 132.11 224.266 132.656 223.593C133.125 223.097 133.461 222.49 133.632 221.829C133.812 220.83 133.316 219.848 132.738 219.024C132.405 218.548 132.04 218.096 131.647 217.67C131.391 218.003 131.167 218.33 130.982 218.543C130.505 219.032 130.136 219.616 129.902 220.257V220.257Z" fill="#FBBEBE"/>
<path d="M104.843 179.574C103.714 184.323 104.194 189.29 104.794 194.138C105.252 197.828 105.765 201.649 104.674 205.202C104.271 206.529 103.633 207.877 103.878 209.247C104.342 211.829 107.45 212.823 110.024 213.309C110.767 213.498 111.538 213.544 112.298 213.445C113.06 213.237 113.768 212.865 114.37 212.353C118.029 209.691 120.808 205.993 122.349 201.736C123.325 198.887 123.636 195.857 123.936 192.86C124.438 187.817 124.945 182.713 124.209 177.702C123.99 176.228 123.663 174.77 123.527 173.286C123.355 170.703 123.498 168.109 123.952 165.562C124.891 159.25 126.313 153.019 128.206 146.926C123.013 147.616 117.734 146.661 113.111 144.196C114.005 144.677 112.98 152.335 112.871 153.411C112.54 156.616 111.962 159.792 111.142 162.909C109.62 168.733 106.223 173.788 104.843 179.574Z" fill="#3F3D56"/>
<path opacity="0.1" d="M104.843 179.574C103.714 184.323 104.194 189.29 104.794 194.138C105.252 197.828 105.765 201.649 104.674 205.202C104.271 206.529 103.633 207.877 103.878 209.247C104.342 211.829 107.45 212.823 110.024 213.309C110.767 213.498 111.538 213.544 112.298 213.445C113.06 213.237 113.768 212.865 114.37 212.353C118.029 209.691 120.808 205.993 122.349 201.736C123.325 198.887 123.636 195.857 123.936 192.86C124.438 187.817 124.945 182.713 124.209 177.702C123.99 176.228 123.663 174.77 123.527 173.286C123.355 170.703 123.498 168.109 123.952 165.562C124.891 159.25 126.313 153.019 128.206 146.926C123.013 147.616 117.734 146.661 113.111 144.196C114.005 144.677 112.98 152.335 112.871 153.411C112.54 156.616 111.962 159.792 111.142 162.909C109.62 168.733 106.223 173.788 104.843 179.574Z" fill="black"/>
<path d="M133.158 151.746C135.339 158.072 134.859 164.983 133.916 171.61C132.972 178.237 131.582 184.864 131.991 191.54C132.149 194.16 132.574 196.851 131.811 199.356C131.386 200.579 130.825 201.749 130.136 202.845L112.734 232.966C112.291 233.747 111.66 234.406 110.898 234.883C110.136 235.359 109.268 235.638 108.372 235.695C106.512 235.826 104.685 235.214 102.951 234.532C101.799 234.15 100.728 233.556 99.7933 232.78C99.3301 232.394 98.9672 231.901 98.7354 231.344C98.5037 230.787 98.4101 230.182 98.4626 229.581C99.2425 224.352 100.415 218.997 101.282 213.751C101.872 210.192 103.158 206.784 105.067 203.723C106.414 201.54 108.072 199.58 109.233 197.309C112.571 190.803 111.415 182.866 108.841 176.021C106.267 169.175 102.433 162.822 100.388 155.824C99.7814 153.876 99.4349 151.857 99.357 149.819C99.3318 147.714 99.7215 145.625 100.504 143.671C101.286 141.717 102.446 139.937 103.916 138.432C104.345 137.946 104.886 137.571 105.492 137.34C106.201 137.176 106.939 137.189 107.641 137.379C117.332 139.262 129.956 142.401 133.158 151.746Z" fill="#3F3D56"/>
<path d="M289.58 57.294C289.896 59.6849 289.035 62.1031 287.808 64.1719C283.167 71.9233 272.467 75.3513 264.194 71.7431C260.786 70.2529 257.901 67.7965 255.076 65.3729C254.127 64.5541 253.14 63.697 252.66 62.5398C251.815 60.4928 252.834 58.0528 254.498 56.5898C256.161 55.1269 258.315 54.4064 260.458 53.7568C267.532 51.5515 287.895 44.5971 289.58 57.294Z" fill="#FBBEBE"/>
<path d="M285.441 49.7066C291.881 54.8924 301.256 59.8325 308.553 63.6754C311.034 64.9855 313.788 66.4593 314.682 69.1341C315.162 70.5642 315.004 72.1199 314.846 73.6265C314.54 76.5251 314.224 79.4673 313.106 82.1585C311.792 85.3081 309.469 87.9064 307.604 90.7668C304.332 95.7778 302.412 101.684 298.371 106.111C301.098 115.178 304.081 124.234 305.051 133.645C305.105 133.903 305.076 134.173 304.97 134.414C304.858 134.573 304.713 134.706 304.544 134.802L297.76 139.256C297.02 139.688 296.359 140.242 295.802 140.894C294.603 142.455 294.761 144.649 294.019 146.467C293.612 147.354 293.031 148.15 292.309 148.807C291.588 149.463 290.741 149.967 289.82 150.288C287.966 150.928 285.991 151.137 284.045 150.9C281.567 150.743 279.181 149.903 277.151 148.47C275.423 147.16 274.19 145.321 273.001 143.508C272.12 142.272 271.388 140.937 270.82 139.529C270.095 137.52 270.051 135.331 270.078 133.192C270.096 129.12 270.485 125.058 271.24 121.057C271.556 119.468 271.949 117.902 272.2 116.302C272.701 113.082 272.603 109.796 272.974 106.559C273.481 102.918 274.292 99.3261 275.401 95.8215C276.007 93.6508 276.481 91.445 276.819 89.2165C277.457 85.2972 278.727 81.5143 279.998 77.7533L282.18 71.3066C282.643 69.9146 283.112 68.5281 283.663 67.1689C284.688 64.6306 286.008 62.1579 286.357 59.4504C286.744 56.4972 283.559 52.9927 284.634 50.2197C284.721 49.9141 285.195 49.5101 285.441 49.7066Z" fill="#3F3D56"/>
<path d="M312.937 67.6113C314.448 68.2937 315.282 69.9203 315.822 71.4924C317.039 75.0355 317.332 78.8309 316.673 82.519C316.46 83.4461 316.314 84.3875 316.236 85.3356C316.248 86.4347 316.355 87.5306 316.558 88.6108C317.104 92.7867 316.558 97.0281 316.738 101.242C316.924 105.98 317.954 110.986 315.969 115.293C314.65 118.153 312.152 120.282 309.687 122.214C300.51 129.374 290.384 135.223 279.6 139.595C281.46 137.357 281.492 133.989 280.254 131.352C279.017 128.716 276.715 126.734 274.256 125.195C277.386 124.498 280.418 123.415 283.281 121.969C288.996 119.065 293.894 114.812 298.731 110.604C299.444 110.09 300 109.387 300.334 108.573C300.825 106.936 299.473 105.38 298.535 103.944C295.693 99.5773 296.353 93.873 297.542 88.8183C298.867 83.2777 300.814 77.759 304.364 73.3047C306.578 70.5208 309.469 68.381 312.937 67.6113Z" fill="#3F3D56"/>
<path d="M279.12 139.731C278.63 140.531 277.994 141.231 277.244 141.795C275.608 142.886 273.361 142.471 271.534 141.696C269.837 140.975 268.27 139.978 266.899 138.743C266.309 138.116 265.613 137.598 264.843 137.215C263.414 136.669 261.418 137.078 260.616 135.763C260.523 135.625 260.477 135.46 260.486 135.293C260.535 134.818 261.156 134.687 261.636 134.66C263.863 134.513 266.024 133.845 267.946 132.711C267.332 132.267 266.807 131.712 266.397 131.074C266.227 130.851 266.135 130.579 266.135 130.299C266.202 129.994 266.369 129.721 266.61 129.523C268.363 127.868 270.569 126.771 272.946 126.375C275.324 125.978 277.765 126.299 279.96 127.296C280.388 127.47 280.764 127.752 281.051 128.115C281.253 128.45 281.388 128.821 281.449 129.207C281.803 130.735 283.085 133.028 282.621 134.573C282.109 136.347 280.173 138.23 279.12 139.731Z" fill="#FBBEBE"/>
<path d="M241.933 132.848C248.717 125.004 251.749 114.682 254.563 104.698L256.575 97.6014L261.429 80.5103C262.143 77.9884 262.858 75.4665 263.332 72.8954C264.145 68.4575 264.221 63.9214 264.172 59.4125C264.103 57.5434 263.675 55.705 262.912 53.9975C262.438 52.8184 262.209 51.5629 261.822 50.3457C261.329 48.6486 260.592 47.0323 259.635 45.5475C259.368 45.106 259.035 44.7084 258.648 44.3684C257.977 43.9119 257.216 43.603 256.417 43.4623C254.684 42.9463 252.887 42.6726 251.078 42.6489C249.268 42.7144 247.403 43.3422 246.236 44.7178C245.347 45.7713 244.938 47.136 244.234 48.3205C243.907 48.8055 243.61 49.3105 243.345 49.8325C243.046 50.6256 242.88 51.4632 242.855 52.3108C242.571 55.7497 242.329 59.1923 242.129 62.6386C242.037 64.2052 241.955 65.7828 242.015 67.3549C242.064 68.5776 242.195 69.7949 242.326 71.0122L243.618 82.9339C243.918 85.7342 243.705 88.3544 243.956 91.1602C244.567 97.9344 243.111 104.709 241.617 111.357C240.902 114.518 240.166 117.722 238.639 120.582C237.292 123.115 235.274 125.686 235.809 128.508C235.994 129.491 236.49 130.408 236.567 131.402C236.529 132.017 236.59 132.634 236.747 133.23C236.969 133.636 237.315 133.96 237.733 134.156C238.152 134.352 238.622 134.41 239.075 134.322C240.155 134.132 241.152 133.618 241.933 132.848Z" fill="#3F3D56"/>
<path d="M242.762 101.455C242.969 103.022 242.811 104.61 242.887 106.188C243.058 108.22 243.424 110.23 243.978 112.192C244.523 114.376 245.221 116.821 247.146 118.033C247.629 118.284 248.091 118.574 248.526 118.901C248.741 119.07 248.898 119.301 248.978 119.562C249.058 119.824 249.056 120.104 248.973 120.364L247.474 120.113C247.644 120.243 247.785 120.408 247.887 120.596C247.989 120.785 248.05 120.992 248.067 121.206C248.083 121.42 248.054 121.635 247.982 121.837C247.909 122.038 247.795 122.223 247.647 122.377C247.499 122.532 247.319 122.654 247.121 122.734C246.922 122.815 246.709 122.852 246.495 122.845C246.281 122.837 246.071 122.784 245.879 122.69C245.687 122.595 245.516 122.461 245.379 122.296C245.436 122.788 245.39 123.286 245.243 123.759C245.167 123.991 245.022 124.194 244.827 124.341C244.632 124.487 244.396 124.57 244.152 124.578C243.87 124.534 243.602 124.422 243.373 124.251L239.457 121.821C238.284 121.189 237.308 120.245 236.638 119.092L234.925 116.51C234.548 116.012 234.248 115.46 234.036 114.873C233.398 112.689 235.181 110.265 234.254 108.207C233.976 107.7 233.649 107.221 233.278 106.777C231.299 104.048 231.424 100.336 231.642 96.9517C231.713 95.8108 231.92 94.4571 232.951 93.9603C233.769 93.5618 234.751 93.9167 235.509 94.4134C236.267 94.9101 236.937 95.5652 237.799 95.8599C238.344 96.0455 238.944 96.0674 239.49 96.2639C240.253 96.5314 240.962 97.574 241.475 98.1908C242.2 99.1374 242.645 100.268 242.762 101.455V101.455Z" fill="#FBBEBE"/>
<path d="M194.973 52.3975C194.51 53.4618 193.86 54.4343 193.053 55.2688C192.648 55.6857 192.151 56.0018 191.602 56.1914C191.052 56.381 190.466 56.4389 189.89 56.3605C188.68 56.1203 187.791 55.1214 186.989 54.177C184.895 51.7152 182.774 49.2206 181.367 46.3056C179.218 41.8677 178.874 36.8021 178.563 31.8838C178.487 30.6174 178.422 29.2746 179.027 28.1664C179.796 26.7526 181.426 26.0867 182.932 25.5244L191.248 22.413C191.758 22.1714 192.322 22.0678 192.884 22.1128C194.188 22.3311 194.668 23.9032 195.022 25.1751C195.656 27.4606 196.711 29.6079 198.13 31.5072C199.996 33.9963 204.178 37.3479 201.79 40.4539C198.905 44.1767 197.073 48.1943 194.973 52.3975Z" fill="#BE6F72"/>
<path d="M205.613 38.1945C209.256 41.6225 210.488 46.9611 210.314 51.9558C210.139 56.9505 208.754 61.8196 207.963 66.7543C207.172 71.6889 207.014 76.9565 209.157 81.4927C209.894 83.0484 210.897 84.4895 211.41 86.1326C211.84 87.7565 211.985 89.4427 211.841 91.1163C211.832 92.8807 211.495 94.6281 210.848 96.2693C209.686 98.8458 207.298 100.636 205.013 102.274C200.35 105.647 195.595 109.075 190.119 110.839C186.411 112.034 182.484 112.427 178.602 112.64C175.973 112.85 173.329 112.775 170.716 112.416C166.145 111.654 161.945 109.428 158.745 106.073C158.188 105.532 157.728 104.899 157.388 104.201C157.054 103.292 156.893 102.33 156.913 101.362C156.782 97.7778 156.804 94.1932 156.978 90.6087C157.079 87.1926 157.549 83.7975 158.38 80.4828C159.422 76.6618 161.227 73.0809 162.596 69.3581C167.362 56.4155 166.882 41.688 173.503 29.6025C174.931 26.9933 177.32 24.2476 180.265 24.6624C180.831 24.6965 181.365 24.942 181.759 25.3502C182.098 25.8471 182.287 26.4305 182.304 27.0315C183.008 32.905 184.006 38.9314 186.771 44.2318C187.862 46.3115 189.498 49.4776 192.012 50.0344C194.526 50.5911 196.009 48.1893 197.356 46.4862C199.723 43.3631 202.5 40.574 205.613 38.1945V38.1945Z" fill="#E3E8F4"/>
<path d="M223.047 29.3569C223.79 29.7589 224.484 30.2461 225.114 30.8089C226.75 32.3592 227.35 34.7337 227.339 36.9826C227.328 39.2316 226.794 41.4478 226.467 43.675C225.589 49.6795 226.336 55.826 226.685 61.907C226.791 62.8888 226.732 63.8815 226.51 64.8437C226.243 65.7608 225.692 66.5687 225.338 67.4584C224.296 70.0895 225.082 73.0918 224.471 75.8539C223.816 78.7961 221.575 81.4708 221.995 84.4567C222.164 85.6249 222.726 86.7002 222.966 87.8575C223.206 89.0147 222.998 90.4121 222 91.0344C221.002 91.6567 219.552 91.2037 218.363 91.5476C217.88 91.726 217.41 91.9376 216.956 92.1808C215.118 93.0105 212.926 92.7266 211.115 91.8205C209.341 90.851 207.745 89.5845 206.398 88.0758C204.32 85.947 202.308 83.6161 201.397 80.783C200.067 76.6781 201.25 72.2075 202.695 68.1353C204.14 64.0631 205.864 59.9473 205.607 55.6186C205.465 53.1949 204.702 50.8641 204.244 48.4841C203.677 45.1866 203.474 41.8366 203.639 38.4947C203.709 36.0492 203.873 33.5273 204.926 31.3165C205.676 29.8418 206.784 28.5793 208.149 27.6446C209.513 26.71 211.09 26.1332 212.735 25.967C216.552 25.5522 219.824 27.5009 223.047 29.3569Z" fill="#3F3D56"/>
<path opacity="0.1" d="M212.735 82.1201C212.773 83.8668 213.086 85.5966 213.662 87.2458C214.638 85.0187 214.753 82.5186 214.884 80.095C215.429 71.7487 217.278 63.8773 219.246 55.793C217.812 56.8847 217.005 59.614 216.318 61.2516C213.591 67.8554 212.367 74.984 212.735 82.1201V82.1201Z" fill="black"/>
<path d="M175.973 23.9635C173.344 24.6568 171.065 26.218 168.518 27.2387C165.873 28.3305 163.026 28.7945 160.251 29.4659C153.826 31.027 147.375 33.9256 143.498 39.2915C140.64 43.2381 139.456 48.1127 137.499 52.5834C135.863 56.3335 133.681 59.8489 132.476 63.7518C130.9 68.8448 131.08 74.3034 131.467 79.6202C131.783 83.9871 132.263 88.4032 134.243 92.2734C135.279 94.304 136.708 96.1217 137.744 98.1524C138.987 100.592 139.642 103.284 140.678 105.795C141.714 108.306 143.236 110.817 145.641 112.127L149.622 109.796C155.561 106.319 161.499 102.836 167.253 99.0585C172.27 95.7833 177.331 92.0223 180.003 86.64C182.37 81.8855 182.604 76.3286 181.994 71.0501C181.383 65.7715 179.987 60.6076 179.267 55.3454C178.35 48.7224 178.488 41.9956 179.676 35.4158C180.221 32.4463 181.672 29.3785 181.972 26.4199C182.304 23.2594 178.247 23.3631 175.973 23.9635Z" fill="#3F3D56"/>
<path d="M151.361 110.74C154.41 113.628 158.794 114.468 162.606 116.199C165.439 117.515 167.989 119.369 170.116 121.657C171.288 122.946 172.423 124.698 171.834 126.336C171.338 127.744 169.816 128.464 168.42 128.988C166.686 129.644 164.75 130.222 163.021 129.562C162.007 129.174 161.189 128.399 160.256 127.848C157.971 126.488 155.092 126.483 152.747 125.227C149.442 123.459 147.795 119.567 144.686 117.465C142.985 116.319 140.634 115.38 140.46 113.333C140.452 112.593 140.608 111.86 140.918 111.188C141.545 109.517 142.614 103.78 145.003 103.933C147.604 104.102 149.425 109.359 151.361 110.74Z" fill="#FBBEBE"/>
<path d="M135.388 85.1553C136.386 88.7472 138.704 91.8095 141.109 94.6589C142.838 96.7059 144.735 98.933 144.795 101.613C144.85 104.146 143.159 106.477 140.978 107.771C138.797 109.064 136.228 109.479 133.703 109.643C131.683 109.838 129.645 109.696 127.671 109.223C122.687 107.869 119.229 103.518 115.308 100.156C112.98 98.1634 110.362 96.4275 108.579 93.9329C106.796 91.4383 106.043 87.8574 107.799 85.3409C108.433 84.5252 109.165 83.7917 109.98 83.1575C112.959 80.5728 115.498 77.5218 117.501 74.1234C118.308 72.7532 119.082 71.2685 120.44 70.4442C122.387 69.2597 124.885 69.8001 127.088 70.3787C129.482 71.0065 136.228 72.2347 136.697 75.2915C136.888 76.547 135.334 78.5012 135.099 79.8495C134.801 81.6177 134.899 83.4302 135.388 85.1553V85.1553Z" fill="#FBBEBE"/>
<path d="M147.718 92.0006C148.433 93.2966 149.021 94.6584 149.475 96.0673C151.138 101.853 148.166 107.814 146.748 113.666C144.937 121.161 145.706 128.999 145.619 136.713C145.581 140.239 145.204 144.12 142.669 146.565C142.014 147.188 141.229 147.712 140.787 148.498C140.514 149.074 140.311 149.68 140.182 150.305C139.795 151.653 139.108 152.897 138.173 153.943C137.238 154.989 136.079 155.809 134.783 156.344C133.486 156.878 132.086 157.112 130.687 157.029C129.287 156.945 127.925 156.546 126.701 155.862C124.634 154.71 122.84 152.712 120.473 152.652C119.729 152.688 118.987 152.77 118.253 152.898C115.897 153.132 113.591 152.259 111.382 151.402C110.855 151.235 110.363 150.972 109.931 150.627C109.533 150.261 109.277 149.77 108.911 149.377C107.564 147.925 105.263 148.176 103.322 147.772C101.873 147.447 100.547 146.717 99.497 145.667C98.4473 144.616 97.7179 143.288 97.3937 141.838C97.0011 139.96 97.3337 138.017 97.6609 136.123L99.1225 127.684C99.7358 124.588 100.16 121.458 100.393 118.311C100.572 114.755 100.268 111.191 99.4879 107.716C98.8444 104.878 97.8845 102.099 97.5355 99.206C96.9274 94.0211 98.2901 88.7969 101.353 84.5713C102.111 83.5287 103.104 82.4861 104.391 82.3879C105.432 82.2951 106.408 82.8519 107.314 83.3868C115.178 88.0449 123.096 92.6065 131.069 97.0717C133.25 98.2999 135.481 99.5335 137.913 100.139C138.644 100.325 139.691 100.249 139.795 99.5063C139.808 99.2233 139.733 98.9431 139.582 98.7038C138.219 96.0782 136.244 93.8238 134.674 91.3237C133.103 88.8236 131.892 85.865 132.356 82.961C132.989 78.9434 136.719 76.2851 139.767 79.4347C143.187 83.0101 145.477 87.6064 147.718 92.0006Z" fill="#F86D70"/>
<path d="M123.298 142.947C129.695 143.356 136.233 143.793 142.156 146.249C144.059 147.035 146.077 148.05 148.078 147.565C149.075 147.261 150.001 146.764 150.805 146.102C153.271 144.292 155.6 142.303 157.775 140.152C157.557 138.956 155.937 138.793 154.726 138.803C151.774 138.821 148.862 138.12 146.241 136.762C145.379 136.243 144.465 135.817 143.514 135.49C140.923 134.775 138.284 136.14 135.683 136.806C131.833 137.788 127.775 137.215 123.843 136.636L113.231 135.07C112.244 134.928 111.131 134.813 110.346 135.425C109.821 135.921 109.461 136.567 109.315 137.275C108.017 141.642 108.639 142.008 112.958 142.281L123.298 142.947Z" fill="#FBBEBE"/>
<path opacity="0.1" d="M268.208 67.1582C277.846 67.1582 285.659 59.3376 285.659 49.6904C285.659 40.0432 277.846 32.2227 268.208 32.2227C258.57 32.2227 250.757 40.0432 250.757 49.6904C250.757 59.3376 258.57 67.1582 268.208 67.1582Z" fill="black"/>
<path d="M268.082 66.3994C277.72 66.3994 285.534 58.5788 285.534 48.9316C285.534 39.2845 277.72 31.4639 268.082 31.4639C258.444 31.4639 250.631 39.2845 250.631 48.9316C250.631 58.5788 258.444 66.3994 268.082 66.3994Z" fill="#FBBEBE"/>
<path d="M282.812 26.7529C284.208 27.6153 285.67 28.5433 286.433 29.9953C286.844 30.9811 287.156 32.005 287.366 33.0522C288.32 36.3274 290.862 39.1713 291.014 42.583C291.183 46.3222 288.38 49.5701 285.206 51.5298C284.482 52.0642 283.608 52.3582 282.709 52.3704C281.787 52.3104 280.991 51.7318 280.145 51.3606C276.562 49.7666 272.554 51.7863 268.759 52.7143C264.814 53.6678 260.676 53.4245 256.87 52.0156C254.825 51.2514 252.84 50.1051 251.558 48.331C250.277 46.5569 249.819 44.0732 250.909 42.1682C251.455 41.1965 252.36 40.3177 252.3 39.2096C252.267 38.5436 251.875 37.9431 251.755 37.2881C251.58 36.2455 252.125 35.2302 252.682 34.3404C255.206 30.275 258.395 26.6637 262.116 23.6578C263.207 22.7626 264.467 21.8892 265.895 21.8237C268.764 21.6981 271.229 23.8379 274.179 23.8488C277.528 23.8598 279.933 24.9733 282.812 26.7529Z" fill="#3F3D56"/>
<path opacity="0.1" d="M203.84 45.2416C213.779 45.2416 221.837 37.1766 221.837 27.228C221.837 17.2793 213.779 9.21436 203.84 9.21436C193.901 9.21436 185.844 17.2793 185.844 27.228C185.844 37.1766 193.901 45.2416 203.84 45.2416Z" fill="black"/>
<path d="M204.157 44.7992C214.096 44.7992 222.153 36.7343 222.153 26.7856C222.153 16.8369 214.096 8.77197 204.157 8.77197C194.217 8.77197 186.16 16.8369 186.16 26.7856C186.16 36.7343 194.217 44.7992 204.157 44.7992Z" fill="#BE6F72"/>
<path d="M213.771 36.9606C216.312 38.3854 219.448 38.238 222.284 37.5884C223.892 37.2859 225.417 36.6418 226.756 35.6997C227.421 35.2242 227.969 34.6036 228.359 33.8849C228.749 33.1662 228.971 32.3682 229.008 31.5511C229.008 29.7224 227.808 28.0739 227.661 26.2453C227.481 23.9417 228.981 21.8128 229.139 19.4983C229.297 17.1839 228.157 15.0987 227.045 13.1117C225.131 9.70003 223.14 6.24469 220.228 3.63544C217.316 1.02619 213.28 -0.638702 209.463 0.240145C207.587 0.67138 205.847 1.68124 203.933 1.87775C202.232 2.03605 200.552 1.52293 198.856 1.30459C197.16 1.08624 195.257 1.22271 194.04 2.39632C193.375 3.05136 192.95 3.97388 192.17 4.45424C191.641 4.69839 191.094 4.90098 190.534 5.06016C188.565 5.85166 187.665 8.07334 186.967 10.0712L182.288 23.4941C183.853 24.5858 185.74 25.0826 187.453 25.9232C189.165 26.7638 190.828 28.1067 191.177 29.9845C191.445 31.4092 190.937 33.0468 191.766 34.2368C192.524 35.3285 194.068 35.5141 195.377 35.3285C196.685 35.1429 198 34.6898 199.308 34.8918C202.581 35.3886 203.797 37.3973 206.823 34.8918C209.85 32.3863 210.957 35.3776 213.771 36.9606Z" fill="#3F3D56"/>
<path opacity="0.1" d="M127.677 83.7853C136.713 83.7853 144.037 76.4535 144.037 67.4092C144.037 58.365 136.713 51.0332 127.677 51.0332C118.641 51.0332 111.316 58.365 111.316 67.4092C111.316 76.4535 118.641 83.7853 127.677 83.7853Z" fill="black"/>
<path d="M128.31 82.8956C137.345 82.8956 144.67 75.5638 144.67 66.5196C144.67 57.4754 137.345 50.1436 128.31 50.1436C119.274 50.1436 111.949 57.4754 111.949 66.5196C111.949 75.5638 119.274 82.8956 128.31 82.8956Z" fill="#FBBEBE"/>
<path d="M140.836 50.5089C136.941 47.5177 132.565 45.2138 127.895 43.6964C124.907 42.7248 121.656 42.0588 118.624 42.9541C114.512 44.1277 109.01 45.8799 106.463 49.3243C105.209 51.0165 103.938 52.7578 103.333 54.783C102.122 58.8552 103.845 63.1948 103.731 67.4417C103.594 72.3927 100.971 76.9125 98.1082 80.9519C95.2451 84.9913 94.667 90.7775 92.9764 95.4392C92.3984 97.0386 92.213 99.2603 93.7018 100.063C95.0106 100.789 96.5921 99.8826 97.8028 99.0092L105.083 93.7416C105.649 93.276 106.301 92.9272 107.003 92.7153C108.502 92.366 109.969 93.3049 111.224 94.1946L126.494 105.003C126.795 104.386 126.958 103.71 126.97 103.024C126.983 102.337 126.844 101.656 126.564 101.029C127.999 101.471 129.04 102.667 130.3 103.518C131.56 104.37 133.474 104.648 134.39 103.458C135.306 102.268 134.614 100.669 133.594 99.7079C132.574 98.7472 131.233 98.174 130.235 97.186C128.255 95.2154 128.053 92.104 126.804 89.6148C125.91 87.868 124.465 86.4051 123.832 84.5437C122.802 81.5032 124.149 78.228 125.468 75.3022C127.044 71.8305 128.828 68.124 132.182 66.3117C133.31 65.7004 134.559 65.3401 135.715 64.7833C138.595 63.4023 142.189 60.1434 143.596 57.223C144.828 54.6302 142.93 52.1246 140.836 50.5089Z" fill="#3F3D56"/>
<path opacity="0.1" d="M116.072 104.626C117.637 105.625 119.404 106.264 120.942 107.306C122.48 108.349 123.827 109.932 123.87 111.788C123.914 113.562 122.78 115.118 121.689 116.526L108.404 133.978L115.178 135.773C114.087 137.28 113.809 139.201 113.242 140.97C112.674 142.739 111.606 144.578 109.795 145.042C108.159 145.463 106.447 144.6 104.756 144.698C103.507 144.775 102.329 145.364 101.08 145.413C99.4715 145.474 97.9773 144.627 96.6357 143.732C93.6472 141.729 90.6805 138.858 90.7023 135.255C90.7731 134.036 91.0173 132.834 91.4276 131.685C93.3854 125.293 95.4141 118.748 99.4715 113.431C101.653 110.593 104.32 108.196 106.986 105.816C107.593 105.205 108.306 104.711 109.091 104.359C110.837 103.704 112.74 104.512 114.545 105.036C116.35 105.56 118.624 105.636 119.666 104.091" fill="black"/>
<path d="M115.499 103.551C117.065 104.545 118.831 105.189 120.369 106.231C121.907 107.274 123.254 108.857 123.303 110.708C123.352 112.558 122.213 114.043 121.122 115.451L107.832 132.886L114.605 134.682C113.514 136.189 113.236 138.105 112.669 139.879C112.102 141.653 111.033 143.487 109.222 143.951C107.586 144.371 105.874 143.509 104.183 143.607C102.935 143.678 101.757 144.273 100.508 144.317C98.8989 144.377 97.4047 143.53 96.0631 142.635C93.0746 140.637 90.1079 137.761 90.1352 134.163C90.2005 132.945 90.443 131.742 90.8551 130.593C92.8129 124.196 94.8416 117.651 98.899 112.34C101.08 109.496 103.753 107.099 106.414 104.698C107.023 104.09 107.736 103.596 108.519 103.24C110.264 102.585 112.167 103.393 113.972 103.922C115.777 104.452 118.052 104.523 119.093 102.978" fill="#F86D70"/>
<g opacity="0.1">
<path opacity="0.1" d="M252.125 44.7119C253.407 46.486 255.398 47.6378 257.437 48.3966C261.242 49.8111 265.382 50.0544 269.326 49.0953C273.143 48.1673 277.13 46.1476 280.713 47.7415C281.558 48.1182 282.349 48.6913 283.27 48.7568C284.172 48.7405 285.046 48.4449 285.773 47.9107C287.982 46.5461 290.011 44.5591 290.981 42.2173C290.981 42.3374 290.981 42.4575 291.014 42.5831C291.183 46.3223 288.38 49.5702 285.206 51.5298C284.482 52.0643 283.608 52.3582 282.709 52.3705C281.787 52.3104 280.991 51.7318 280.145 51.3606C276.562 49.7667 272.554 51.7864 268.759 52.7144C264.814 53.6678 260.676 53.4246 256.87 52.0157C254.825 51.2514 252.84 50.1051 251.558 48.3311C250.277 46.557 249.819 44.0733 250.909 42.1682L250.991 42.0317C251.168 42.9978 251.555 43.9129 252.125 44.7119V44.7119Z" fill="black"/>
<path opacity="0.1" d="M252.851 35.5904C252.894 36.431 252.387 37.1352 251.902 37.8503C251.834 37.673 251.781 37.4904 251.744 37.3044C251.58 36.3273 252.049 35.3775 252.567 34.5205C252.716 34.8605 252.811 35.2214 252.851 35.5904V35.5904Z" fill="black"/>
</g>
<path opacity="0.1" d="M188.243 8.29174L183.564 21.7092C185.129 22.8009 187.016 23.3031 188.729 24.1383C190.441 24.9735 192.104 26.3217 192.453 28.1995C192.721 29.6242 192.213 31.2618 193.042 32.4573C193.8 33.549 195.344 33.7292 196.653 33.549C197.961 33.3689 199.276 32.9104 200.585 33.1123C203.857 33.6091 205.073 35.6179 208.099 33.1396C211.126 30.6614 212.222 33.6036 215.036 35.1866C217.578 36.6168 220.713 36.4694 223.549 35.8144C225.157 35.5135 226.682 34.8713 228.021 33.9311C228.211 33.7753 228.394 33.6095 228.566 33.4344C228.149 34.329 227.52 35.1084 226.734 35.7052C225.395 36.6473 223.87 37.2914 222.262 37.5939C219.426 38.2435 216.263 38.3909 213.749 36.9662C210.935 35.3831 209.779 32.4955 206.812 34.9192C203.846 37.3428 202.559 35.3886 199.298 34.9192C197.989 34.7172 196.68 35.1703 195.366 35.3559C194.051 35.5414 192.513 35.3559 191.755 34.2641C190.926 33.0741 191.434 31.4365 191.166 30.0118C190.817 28.134 189.154 26.7857 187.442 25.9506C185.729 25.1154 183.842 24.6077 182.277 23.5214L186.978 10.0658C187.523 8.58651 188.123 6.98712 189.214 5.93359C188.836 6.69612 188.512 7.48408 188.243 8.29174V8.29174Z" fill="black"/>
<g opacity="0.1">
<path opacity="0.1" d="M127.781 101.619C128.986 102.164 130.507 102.246 131.271 101.226C132.127 100.134 131.494 98.4416 130.475 97.4755C129.455 96.5093 128.113 95.9416 127.115 94.9535C125.136 92.9884 124.934 89.877 123.685 87.3878C122.791 85.6356 121.345 84.1727 120.713 82.3113C119.682 79.2762 121.029 75.9956 122.349 73.0752C123.925 69.6035 125.708 65.897 129.062 64.0847C130.191 63.4734 131.44 63.1131 132.596 62.5563C135.475 61.1753 139.069 57.911 140.476 54.9906C141.66 52.5287 139.991 50.1378 138.006 48.5166C138.971 49.1443 139.915 49.8048 140.831 50.509C142.93 52.1466 144.823 54.6303 143.557 57.2123C142.15 60.1327 138.557 63.3915 135.677 64.7725C134.521 65.3184 133.272 65.6896 132.143 66.301C128.789 68.1132 127.006 71.8197 125.43 75.2914C124.105 78.2173 122.758 81.4925 123.794 84.5329C124.427 86.3943 125.872 87.8573 126.766 89.6041C128.031 92.0932 128.217 95.2046 130.196 97.1752C131.194 98.1633 132.536 98.731 133.556 99.6971C134.576 100.663 135.192 102.334 134.352 103.447C133.512 104.561 131.516 104.332 130.262 103.507C129.417 102.934 128.648 102.181 127.781 101.619Z" fill="black"/>
<path opacity="0.1" d="M94.7052 96.7768L101.986 91.5146C102.551 91.0474 103.204 90.6968 103.905 90.4829C105.405 90.139 106.872 91.0779 108.126 91.9677L123.396 102.776C123.698 102.158 123.861 101.482 123.873 100.794C123.885 100.106 123.747 99.4246 123.467 98.7965C124.868 99.2332 125.888 100.401 127.104 101.22C126.928 101.14 126.745 101.072 126.559 101.018C126.839 101.645 126.977 102.326 126.965 103.013C126.953 103.7 126.79 104.375 126.488 104.992L111.218 94.1839C109.964 93.2941 108.492 92.3552 106.997 92.7046C106.296 92.9164 105.644 93.2652 105.078 93.7308L97.7973 98.9984C96.5866 99.8718 95.0051 100.778 93.6963 100.052C93.3383 99.8318 93.0445 99.5211 92.8444 99.1513C92.6443 98.7814 92.545 98.3653 92.5565 97.9449C93.3289 97.6695 94.0538 97.2754 94.7052 96.7768V96.7768Z" fill="black"/>
</g>
<path d="M276.595 132.427C276.595 132.427 245.347 134.933 239.13 130.5L267.717 126.09L276.595 132.427Z" fill="#E3E8F4"/>
<path opacity="0.1" d="M276.595 132.427C276.595 132.427 245.347 134.933 239.13 130.5L267.717 126.09L276.595 132.427Z" fill="black"/>
<path d="M276.595 132.427L267.842 126.881C267.842 126.881 241.731 134.392 234.576 131.292L241.857 121.068L267.728 126.117L276.595 132.427Z" fill="#E3E8F4"/>
<path d="M237.766 58.888C236.801 60.1084 236.027 61.4686 235.471 62.922C235.22 63.6916 235.094 64.4941 234.882 65.2747C234.283 67.2185 233.361 69.0474 232.155 70.6842C229.466 74.5981 226.107 78.3755 225.431 83.0754C225.103 85.3953 225.463 87.7535 225.921 90.0516C226.169 91.567 226.602 93.0464 227.208 94.4567C227.901 95.9524 228.932 97.268 229.723 98.7145C230.445 100.134 231.054 101.609 231.544 103.125C232.477 102.192 233.027 100.942 233.775 99.8499C234.522 98.7582 235.634 97.7756 236.948 97.7592C238.465 97.7592 239.713 99.0147 241.213 99.2112C241.447 99.2585 241.69 99.2357 241.911 99.1457C242.456 98.8892 242.5 98.1523 242.456 97.5627C242.026 93.4414 239.67 89.3747 240.782 85.379C241.807 81.6834 245.472 79.3744 247.397 76.061C248.793 73.6537 249.208 70.8152 249.579 68.0531C250.042 64.7506 250.511 61.4208 250.304 58.0965C250.2 56.4207 248.87 45.8309 246.437 46.939C245.592 47.3211 244.856 48.9423 244.327 49.6683L242.146 52.7634L237.766 58.888Z" fill="#3F3D56"/>
<path d="M172.494 127.203L154.95 141.5L132.378 137.46L147.577 125.517L172.494 127.203Z" fill="#E3E8F4"/>
<path opacity="0.1" d="M173.126 126.314L155.582 140.61L133.01 136.571L148.209 124.627L173.126 126.314Z" fill="black"/>
<path d="M173.001 125.555L155.457 139.846L132.88 135.812L148.084 123.863L173.001 125.555Z" fill="#E3E8F4"/>
<path opacity="0.1" d="M173.508 123.901L155.959 138.197L133.387 134.158L148.591 122.214L173.508 123.901Z" fill="black"/>
<path d="M173.377 123.142L155.833 137.439L133.261 133.399L148.46 121.456L173.377 123.142Z" fill="#E3E8F4"/>
<path d="M404.152 318.481C404.566 318.279 405.023 318.182 405.482 318.197C405.942 318.213 406.391 318.34 406.791 318.569C407.19 318.798 407.528 319.12 407.774 319.509C408.02 319.898 408.168 320.342 408.204 320.801L409.18 333.47L403.389 334.518L400.335 325.359L404.152 318.481Z" fill="#3F3D56"/>
<path d="M201.528 233.561L112.893 278.584C111.876 279.103 111.023 279.894 110.429 280.869C109.835 281.845 109.523 282.966 109.528 284.108C109.532 285.25 109.853 286.369 110.455 287.339C111.057 288.31 111.916 289.094 112.936 289.605L303.835 385.497C307.232 387.2 310.994 388.041 314.791 387.945C318.588 387.85 322.304 386.822 325.611 384.952L406.017 339.568C406.993 339.011 407.798 338.198 408.345 337.217C408.893 336.235 409.163 335.123 409.125 333.999C409.087 332.876 408.744 331.784 408.132 330.841C407.52 329.899 406.662 329.141 405.652 328.651L206.976 233.501C206.124 233.092 205.19 232.885 204.245 232.896C203.3 232.906 202.371 233.134 201.528 233.561V233.561Z" fill="#3F3D56"/>
<path d="M112.298 270.75L109.522 272.814L109.304 282.694C109.287 283.464 109.486 284.224 109.879 284.886C110.273 285.548 110.845 286.086 111.529 286.439L305.69 386.169C306.13 386.396 306.622 386.507 307.117 386.489C307.613 386.471 308.095 386.326 308.519 386.068C308.942 385.81 309.292 385.447 309.535 385.015C309.778 384.582 309.905 384.094 309.905 383.598V369.247L112.298 270.75Z" fill="#3F3D56"/>
<path d="M201.528 222.108L112.893 267.126C111.875 267.643 111.021 268.433 110.426 269.407C109.83 270.382 109.517 271.502 109.519 272.645C109.522 273.787 109.842 274.906 110.442 275.877C111.042 276.849 111.9 277.634 112.92 278.147L303.835 374.039C307.232 375.74 310.994 376.58 314.791 376.485C318.588 376.39 322.304 375.363 325.611 373.493L406.017 328.105C406.993 327.547 407.798 326.734 408.345 325.753C408.893 324.771 409.163 323.659 409.125 322.535C409.087 321.412 408.744 320.32 408.132 319.378C407.52 318.435 406.662 317.678 405.652 317.187L206.976 222.042C206.124 221.635 205.189 221.429 204.244 221.44C203.3 221.452 202.37 221.68 201.528 222.108V222.108Z" fill="#E3E8F4"/>
<path d="M219.874 230.28L122.213 279.916L290.065 363.925L390.78 312.755L219.874 230.28Z" fill="#3F3D56"/>
<path d="M351.488 348.651C357.177 348.651 361.79 345.916 361.79 342.543C361.79 339.169 357.177 336.435 351.488 336.435C345.798 336.435 341.186 339.169 341.186 342.543C341.186 345.916 345.798 348.651 351.488 348.651Z" fill="#3F3D56"/>
<path d="M163.604 247.081C164.132 247.081 164.559 246.654 164.559 246.126C164.559 245.599 164.132 245.171 163.604 245.171C163.077 245.171 162.65 245.599 162.65 246.126C162.65 246.654 163.077 247.081 163.604 247.081Z" fill="#3F3D56"/>
<path d="M160.747 254.718C161.379 254.718 161.892 254.205 161.892 253.572C161.892 252.939 161.379 252.425 160.747 252.425C160.114 252.425 159.602 252.939 159.602 253.572C159.602 254.205 160.114 254.718 160.747 254.718Z" fill="#3F3D56"/>
<path d="M164.941 251.661L176.387 246.317" stroke="#3F3D56" stroke-miterlimit="10"/>
<path d="M266.343 276.508L234.029 295.182C229.334 297.896 227.726 303.905 230.436 308.604C233.147 313.304 239.151 314.914 243.846 312.201L276.16 293.527C280.855 290.813 282.463 284.804 279.753 280.105C277.042 275.405 271.038 273.795 266.343 276.508Z" fill="#5BBE0D"/>
<path d="M295.246 291.248L262.933 309.922C258.237 312.635 256.629 318.645 259.34 323.344C262.05 328.044 268.054 329.654 272.749 326.941L305.063 308.266C309.758 305.553 311.366 299.544 308.656 294.844C305.945 290.145 299.941 288.535 295.246 291.248Z" fill="#5BBE0D"/>
<path d="M240.167 259.588L207.853 278.262C203.158 280.975 201.549 286.985 204.26 291.684C206.971 296.384 212.974 297.994 217.669 295.28L249.983 276.606C254.678 273.893 256.287 267.884 253.576 263.184C250.865 258.485 244.862 256.875 240.167 259.588Z" fill="#5BBE0D"/>
</g>
<defs>
<clipPath id="clip0">
<rect width="504" height="447" fill="white"/>
</clipPath>
</defs>
</svg>
