<svg width="504" height="261" viewBox="0 0 504 261" fill="none" xmlns="http://www.w3.org/2000/svg">
<g clip-path="url(#clip0)">
<path d="M318.538 145.585H150.021V261H318.538V145.585Z" fill="#5BBE0D"/>
<path d="M327.937 132.086H162.106C161.572 132.087 161.06 132.3 160.682 132.68C160.304 133.06 160.092 133.575 160.091 134.112V246.825C160.091 247.091 160.143 247.355 160.244 247.6C160.346 247.846 160.494 248.069 160.681 248.258C160.868 248.446 161.09 248.595 161.335 248.697C161.579 248.799 161.841 248.851 162.106 248.851H327.937C328.202 248.851 328.464 248.798 328.708 248.697C328.953 248.595 329.175 248.446 329.362 248.258C329.549 248.069 329.697 247.846 329.799 247.6C329.9 247.355 329.952 247.091 329.952 246.825V134.112C329.951 133.575 329.739 133.06 329.361 132.68C328.983 132.3 328.471 132.087 327.937 132.086V132.086ZM328.609 246.825C328.609 246.914 328.592 247.002 328.558 247.084C328.524 247.166 328.475 247.241 328.413 247.303C328.35 247.366 328.276 247.416 328.194 247.45C328.113 247.483 328.025 247.501 327.937 247.5H162.106C162.018 247.501 161.93 247.483 161.849 247.45C161.767 247.416 161.693 247.366 161.63 247.303C161.568 247.241 161.518 247.166 161.485 247.084C161.451 247.002 161.434 246.914 161.434 246.825V134.112C161.435 133.933 161.505 133.761 161.631 133.634C161.757 133.508 161.928 133.437 162.106 133.436H327.937C328.115 133.437 328.286 133.508 328.412 133.634C328.538 133.761 328.608 133.933 328.609 134.112V246.825Z" fill="#3F3D56"/>
<path d="M243.705 211.729H169.8C169.258 211.729 168.819 212.17 168.819 212.715V219.517C168.819 220.062 169.258 220.503 169.8 220.503H243.705C244.247 220.503 244.686 220.062 244.686 219.517V212.715C244.686 212.17 244.247 211.729 243.705 211.729Z" fill="#3F3D56"/>
<path d="M313.837 204.306H289.671C289.406 204.306 289.144 204.358 288.9 204.46C288.655 204.562 288.433 204.711 288.246 204.899C288.059 205.087 287.91 205.31 287.809 205.556C287.708 205.802 287.656 206.065 287.656 206.331V225.228C287.656 225.494 287.708 225.757 287.809 226.003C287.91 226.249 288.059 226.472 288.246 226.66C288.433 226.848 288.655 226.998 288.9 227.099C289.144 227.201 289.406 227.254 289.671 227.254H313.837C314.101 227.254 314.363 227.201 314.608 227.099C314.852 226.998 315.074 226.848 315.261 226.66C315.449 226.472 315.597 226.249 315.698 226.003C315.799 225.757 315.852 225.494 315.852 225.228V206.331C315.852 206.065 315.799 205.802 315.698 205.556C315.597 205.31 315.449 205.087 315.261 204.899C315.074 204.711 314.852 204.562 314.608 204.46C314.363 204.358 314.101 204.306 313.837 204.306V204.306ZM314.508 225.228C314.508 225.407 314.437 225.578 314.311 225.705C314.185 225.832 314.015 225.903 313.837 225.903H289.671C289.493 225.903 289.322 225.832 289.196 225.705C289.07 225.578 288.999 225.407 288.999 225.228V206.331C288.999 206.243 289.016 206.155 289.05 206.073C289.083 205.991 289.133 205.916 289.195 205.853C289.258 205.791 289.332 205.741 289.413 205.707C289.495 205.673 289.583 205.656 289.671 205.656H313.837C313.925 205.656 314.012 205.673 314.094 205.707C314.176 205.741 314.25 205.791 314.312 205.853C314.375 205.916 314.424 205.991 314.458 206.073C314.491 206.155 314.508 206.243 314.508 206.331V225.228Z" fill="#3F3D56"/>
<path d="M309.011 208.666H294.497C293.955 208.666 293.516 209.107 293.516 209.652V211.107C293.516 211.651 293.955 212.093 294.497 212.093H309.011C309.552 212.093 309.991 211.651 309.991 211.107V209.652C309.991 209.107 309.552 208.666 309.011 208.666Z" fill="#3F3D56"/>
<path d="M309.011 214.065H294.497C293.955 214.065 293.516 214.507 293.516 215.051V216.506C293.516 217.051 293.955 217.492 294.497 217.492H309.011C309.552 217.492 309.991 217.051 309.991 216.506V215.051C309.991 214.507 309.552 214.065 309.011 214.065Z" fill="#3F3D56"/>
<path d="M309.011 219.465H294.497C293.955 219.465 293.516 219.906 293.516 220.451V221.906C293.516 222.45 293.955 222.891 294.497 222.891H309.011C309.552 222.891 309.991 222.45 309.991 221.906V220.451C309.991 219.906 309.552 219.465 309.011 219.465Z" fill="#3F3D56"/>
<path d="M204.765 140.186H171.814C171.273 140.186 170.834 140.627 170.834 141.172V154.049C170.834 154.593 171.273 155.035 171.814 155.035H204.765C205.307 155.035 205.746 154.593 205.746 154.049V141.172C205.746 140.627 205.307 140.186 204.765 140.186Z" fill="#3F3D56"/>
<path d="M190.975 147.61C190.975 150.22 189.773 152.335 188.29 152.335C186.806 152.335 185.604 150.22 185.604 147.61C185.604 145.001 188.29 142.886 188.29 142.886C188.29 142.886 190.975 145.001 190.975 147.61Z" fill="#5BBE0D"/>
<path d="M442.225 79.7642H441.245V189.976H329.952V190.962H442.225V79.7642Z" fill="#3F3D56"/>
<path d="M150.021 190.962H37.7473V79.7642H38.7279V189.976H150.021V190.962Z" fill="#3F3D56"/>
<path d="M503.686 18.6351H503.057V17.5296H503.529C503.612 17.5296 503.692 17.4963 503.751 17.4371C503.81 17.3779 503.843 17.2975 503.843 17.2138V11.5285C503.843 11.4447 503.81 11.3644 503.751 11.3051C503.692 11.2459 503.612 11.2126 503.529 11.2126H503.057V7.98387C503.057 7.08059 502.88 6.18614 502.537 5.35161C502.193 4.51708 501.689 3.7588 501.053 3.12008C500.418 2.48136 499.664 1.97471 498.834 1.62904C498.003 1.28337 497.114 1.10547 496.215 1.10547H495.517V0.315848C495.517 0.23208 495.484 0.151743 495.425 0.0925102C495.366 0.0332774 495.286 1.30713e-06 495.203 0H489.547C489.464 1.30713e-06 489.384 0.0332774 489.325 0.0925102C489.266 0.151743 489.233 0.23208 489.233 0.315848V1.10547H387.052C386.153 1.10547 385.264 1.28337 384.433 1.62904C383.603 1.97471 382.849 2.48136 382.214 3.12008C381.578 3.7588 381.074 4.51708 380.73 5.35161C380.387 6.18614 380.21 7.08059 380.21 7.98387V154.362C380.21 155.266 380.387 156.16 380.73 156.995C381.074 157.829 381.578 158.587 382.214 159.226C382.849 159.865 383.603 160.371 384.433 160.717C385.264 161.063 386.153 161.241 387.052 161.241H496.215C497.114 161.241 498.003 161.063 498.834 160.717C499.664 160.371 500.418 159.865 501.053 159.226C501.689 158.587 502.193 157.829 502.537 156.995C502.88 156.16 503.057 155.266 503.057 154.362V24.952H503.686C503.769 24.952 503.849 24.9188 503.908 24.8595C503.967 24.8003 504 24.72 504 24.6362V18.9509C504 18.9094 503.992 18.8684 503.976 18.8301C503.96 18.7917 503.937 18.7569 503.908 18.7276C503.879 18.6983 503.844 18.675 503.806 18.6591C503.768 18.6432 503.727 18.6351 503.686 18.6351V18.6351Z" fill="#3F3D56"/>
<path d="M497.411 5.60498H386.798C386.283 5.60498 385.864 6.0253 385.864 6.54379V154.697C385.864 155.216 386.283 155.636 386.798 155.636H497.411C497.927 155.636 498.345 155.216 498.345 154.697V6.54379C498.345 6.0253 497.927 5.60498 497.411 5.60498Z" fill="#D0CDE1"/>
<path d="M447.503 79.1338H430.169C429.627 79.1338 429.188 79.5751 429.188 80.1195V83.8963C429.188 84.4407 429.627 84.8821 430.169 84.8821H447.503C448.045 84.8821 448.484 84.4407 448.484 83.8963V80.1195C448.484 79.5751 448.045 79.1338 447.503 79.1338Z" fill="#3F3D56"/>
<path d="M470.831 34.3794H406.841C406.3 34.3794 405.861 34.8207 405.861 35.3651V35.8572C405.861 36.4016 406.3 36.8429 406.841 36.8429H470.831C471.372 36.8429 471.811 36.4016 471.811 35.8572V35.3651C471.811 34.8207 471.372 34.3794 470.831 34.3794Z" fill="#3F3D56"/>
<path d="M470.831 42.1807H406.841C406.3 42.1807 405.861 42.622 405.861 43.1664V43.6585C405.861 44.2029 406.3 44.6442 406.841 44.6442H470.831C471.372 44.6442 471.811 44.2029 471.811 43.6585V43.1664C471.811 42.622 471.372 42.1807 470.831 42.1807Z" fill="#3F3D56"/>
<path d="M470.831 49.9819H406.841C406.3 49.9819 405.861 50.4233 405.861 50.9677V51.4597C405.861 52.0041 406.3 52.4455 406.841 52.4455H470.831C471.372 52.4455 471.811 52.0041 471.811 51.4597V50.9677C471.811 50.4233 471.372 49.9819 470.831 49.9819Z" fill="#3F3D56"/>
<path d="M470.831 57.7832H406.841C406.3 57.7832 405.861 58.2245 405.861 58.7689V59.261C405.861 59.8054 406.3 60.2467 406.841 60.2467H470.831C471.372 60.2467 471.811 59.8054 471.811 59.261V58.7689C471.811 58.2245 471.372 57.7832 470.831 57.7832Z" fill="#3F3D56"/>
<path d="M470.831 65.584H406.841C406.3 65.584 405.861 66.0253 405.861 66.5697V67.0618C405.861 67.6062 406.3 68.0475 406.841 68.0475H470.831C471.372 68.0475 471.811 67.6062 471.811 67.0618V66.5697C471.811 66.0253 471.372 65.584 470.831 65.584Z" fill="#3F3D56"/>
<path d="M436.501 149.712C447.814 149.712 456.985 140.493 456.985 129.12C456.985 117.748 447.814 108.528 436.501 108.528C425.189 108.528 416.018 117.748 416.018 129.12C416.018 140.493 425.189 149.712 436.501 149.712Z" fill="#5BBE0D"/>
<path d="M442.539 145.003C437.459 145.003 432.494 143.489 428.271 140.652C424.048 137.815 420.756 133.783 418.812 129.066C416.868 124.348 416.36 119.157 417.351 114.149C418.342 109.141 420.788 104.541 424.379 100.93C427.971 97.3198 432.547 94.8609 437.529 93.8647C442.51 92.8686 447.674 93.3798 452.367 95.3339C457.059 97.2879 461.07 100.597 463.892 104.843C466.714 109.088 468.22 114.08 468.22 119.186C468.213 126.031 465.505 132.593 460.69 137.433C455.875 142.273 449.348 144.996 442.539 145.003V145.003ZM442.539 94.3075C437.644 94.3075 432.859 95.7666 428.79 98.5003C424.72 101.234 421.548 105.119 419.675 109.665C417.802 114.211 417.312 119.214 418.267 124.04C419.221 128.865 421.578 133.298 425.04 136.778C428.501 140.257 432.91 142.626 437.711 143.586C442.511 144.546 447.487 144.054 452.009 142.171C456.531 140.288 460.396 137.099 463.116 133.008C465.835 128.916 467.287 124.106 467.287 119.186C467.279 112.59 464.669 106.266 460.03 101.602C455.39 96.9384 449.1 94.3149 442.539 94.3075V94.3075Z" fill="#3F3D56"/>
<path d="M76.234 43.3286H75.394V20.1942C75.394 18.4359 75.0495 16.6948 74.3801 15.0703C73.7108 13.4458 72.7297 11.9697 71.4929 10.7264C70.2561 9.48305 68.7878 8.49678 67.1718 7.82389C65.5559 7.15101 63.8239 6.80468 62.0748 6.80469H13.3192C11.5701 6.80468 9.83811 7.15101 8.22215 7.82389C6.6062 8.49678 5.1379 9.48305 3.9011 10.7264C2.6643 11.9697 1.68321 13.4458 1.01386 15.0703C0.34451 16.6948 -1.93152e-06 18.4359 0 20.1942V147.111C-1.93153e-06 148.869 0.344509 150.61 1.01386 152.235C1.68321 153.859 2.6643 155.335 3.9011 156.579C5.1379 157.822 6.6062 158.808 8.22217 159.481C9.83813 160.154 11.5701 160.5 13.3192 160.5H62.0748C63.8239 160.5 65.5559 160.154 67.1718 159.481C68.7878 158.808 70.2561 157.822 71.4929 156.579C72.7297 155.335 73.7108 153.859 74.3801 152.235C75.0495 150.61 75.394 148.869 75.394 147.111V59.796H76.234V43.3286Z" fill="#3F3D56"/>
<path d="M72.5577 20.9815V147.713C72.5581 150.365 71.5106 152.909 69.6455 154.784C67.7804 156.66 65.2506 157.714 62.6125 157.714H13.6215C10.9834 157.714 8.45361 156.66 6.58854 154.784C4.72347 152.909 3.67594 150.365 3.67639 147.713V20.9815C3.67667 18.3301 4.72455 15.7873 6.58956 13.9124C8.45458 12.0376 10.984 10.9842 13.6215 10.9839H19.5653C19.2728 11.7052 19.1612 12.4877 19.2404 13.2625C19.3196 14.0374 19.5871 14.7808 20.0194 15.4272C20.4517 16.0736 21.0355 16.6033 21.7193 16.9694C22.4032 17.3356 23.1662 17.5271 23.941 17.5271H51.8728C52.6476 17.5271 53.4106 17.3357 54.0944 16.9695C54.7783 16.6033 55.3621 16.0736 55.7944 15.4272C56.2267 14.7808 56.4942 14.0374 56.5734 13.2626C56.6526 12.4877 56.541 11.7052 56.2485 10.9839H62.6125C65.25 10.9842 67.7795 12.0376 69.6445 13.9124C71.5095 15.7873 72.5574 18.3301 72.5577 20.9815Z" fill="#D0CDE1"/>
<path d="M43.6984 85.647H32.5356C31.9941 85.647 31.5551 86.0883 31.5551 86.6327V88.5709C31.5551 89.1154 31.9941 89.5567 32.5356 89.5567H43.6984C44.24 89.5567 44.679 89.1154 44.679 88.5709V86.6327C44.679 86.0883 44.24 85.647 43.6984 85.647Z" fill="#3F3D56"/>
<path d="M59.7118 55.207H16.5222C16.062 55.207 15.6888 55.5821 15.6888 56.0448C15.6888 56.5075 16.062 56.8826 16.5222 56.8826H59.7118C60.1721 56.8826 60.5452 56.5075 60.5452 56.0448C60.5452 55.5821 60.1721 55.207 59.7118 55.207Z" fill="#3F3D56"/>
<path d="M59.7118 60.5132H16.5222C16.062 60.5132 15.6888 60.8883 15.6888 61.351C15.6888 61.8137 16.062 62.1888 16.5222 62.1888H59.7118C60.1721 62.1888 60.5452 61.8137 60.5452 61.351C60.5452 60.8883 60.1721 60.5132 59.7118 60.5132Z" fill="#3F3D56"/>
<path d="M59.7118 65.8193H16.5222C16.062 65.8193 15.6888 66.1944 15.6888 66.6571C15.6888 67.1198 16.062 67.4949 16.5222 67.4949H59.7118C60.1721 67.4949 60.5452 67.1198 60.5452 66.6571C60.5452 66.1944 60.1721 65.8193 59.7118 65.8193Z" fill="#3F3D56"/>
<path d="M59.7118 71.125H16.5222C16.062 71.125 15.6888 71.5001 15.6888 71.9628C15.6888 72.4255 16.062 72.8006 16.5222 72.8006H59.7118C60.1721 72.8006 60.5452 72.4255 60.5452 71.9628C60.5452 71.5001 60.1721 71.125 59.7118 71.125Z" fill="#3F3D56"/>
<path d="M59.7118 76.4312H16.5222C16.062 76.4312 15.6888 76.8062 15.6888 77.2689C15.6888 77.7316 16.062 78.1067 16.5222 78.1067H59.7118C60.1721 78.1067 60.5452 77.7316 60.5452 77.2689C60.5452 76.8062 60.1721 76.4312 59.7118 76.4312Z" fill="#3F3D56"/>
<path d="M34.258 140.549C42.0598 140.549 48.3843 134.191 48.3843 126.348C48.3843 118.505 42.0598 112.147 34.258 112.147C26.4563 112.147 20.1318 118.505 20.1318 126.348C20.1318 134.191 26.4563 140.549 34.258 140.549Z" fill="#5BBE0D"/>
<path d="M38.4217 137.302C34.9188 137.302 31.4945 136.258 28.582 134.301C25.6694 132.345 23.3993 129.564 22.0588 126.311C20.7183 123.058 20.3676 119.478 21.051 116.024C21.7343 112.57 23.4211 109.398 25.8981 106.908C28.375 104.418 31.5308 102.722 34.9664 102.035C38.402 101.348 41.9631 101.701 45.1994 103.048C48.4357 104.396 51.2018 106.678 53.1479 109.606C55.094 112.534 56.1327 115.976 56.1327 119.497C56.1274 124.218 54.2597 128.743 50.9394 132.081C47.6191 135.419 43.1173 137.297 38.4217 137.302V137.302ZM38.4217 102.34C35.0462 102.34 31.7464 103.347 28.9398 105.232C26.1331 107.117 23.9456 109.797 22.6538 112.932C21.3621 116.067 21.0241 119.517 21.6826 122.845C22.3412 126.173 23.9666 129.23 26.3535 131.629C28.7404 134.029 31.7814 135.663 35.0921 136.325C38.4028 136.987 41.8344 136.647 44.953 135.349C48.0715 134.05 50.737 131.851 52.6124 129.03C54.4877 126.208 55.4887 122.891 55.4887 119.497C55.4836 114.949 53.6839 110.588 50.4843 107.371C47.2847 104.155 42.9466 102.345 38.4217 102.34Z" fill="#3F3D56"/>
<path d="M86.0457 184.918H72.318V198.719H86.0457V184.918Z" fill="#D0CDE1"/>
<path d="M94.3804 190.833H77.711V174.075H94.3804V190.833ZM78.4358 190.104H93.6556V174.804H78.4358V190.104Z" fill="#3F3D56"/>
<path d="M393.449 184.918H379.721V198.719H393.449V184.918Z" fill="#D0CDE1"/>
<path d="M401.784 190.833H385.114V174.075H401.784V190.833ZM385.839 190.104H401.059V174.804H385.839V190.104Z" fill="#3F3D56"/>
</g>
<defs>
<clipPath id="clip0">
<rect width="504" height="261" fill="white"/>
</clipPath>
</defs>
</svg>
