<svg width="470" height="318" viewBox="0 0 470 318" fill="none" xmlns="http://www.w3.org/2000/svg">
<g clip-path="url(#clip0)">
<path opacity="0.4" d="M318.48 197.57C337.869 197.57 353.588 181.871 353.588 162.505C353.588 143.139 337.869 127.44 318.48 127.44C299.09 127.44 283.371 143.139 283.371 162.505C283.371 181.871 299.09 197.57 318.48 197.57Z" fill="#5BBE0D"/>
<path d="M319.281 211.023H123.504V264.019H319.281V211.023Z" fill="#3F3D56"/>
<path d="M306.742 79.7245L298.924 83.4197L305.843 78.2527C304.719 76.4997 303.455 74.8395 302.065 73.2879L268.163 81.7042L298.786 70.0368C297.387 68.8036 295.901 67.6722 294.339 66.6514L242.68 74.9621C237.195 81.8126 234.205 90.322 234.201 99.0935H311.962C311.959 92.2908 310.158 85.6094 306.742 79.7245Z" fill="#F2F2F2"/>
<path d="M312.933 22.9324C281.859 7.7951 247.732 -0.0486656 213.159 0.000227175C142.794 0.000227175 79.8837 31.8673 38.0986 81.9371C109.652 66.2785 234.231 39.1727 312.933 22.9324Z" fill="#F2F2F2"/>
<path d="M466.571 317.015H0V317.928H466.571V317.015Z" fill="#2F2E41"/>
<path d="M272.562 99.0934L246.094 59.8262C246.094 59.8262 286.178 73.8026 281.629 99.0934H272.562Z" fill="#3F3D56"/>
<path d="M273.601 99.0934L300.069 59.8262C300.069 59.8262 259.985 73.8026 264.534 99.0934H273.601Z" fill="#5BBE0D"/>
<path d="M319.51 317.928H123.275V25.5391H319.51V317.928ZM124.19 317.014H318.595V26.4528H124.19V317.014Z" fill="#2F2E41"/>
<path d="M319.281 32.4751H123.962V33.3888H319.281V32.4751Z" fill="#2F2E41"/>
<path d="M128.993 31.0216C130.004 31.0216 130.823 30.2034 130.823 29.1941C130.823 28.1849 130.004 27.3667 128.993 27.3667C127.983 27.3667 127.164 28.1849 127.164 29.1941C127.164 30.2034 127.983 31.0216 128.993 31.0216Z" fill="#5BBE0D"/>
<path d="M134.025 31.0216C135.035 31.0216 135.855 30.2034 135.855 29.1941C135.855 28.1849 135.035 27.3667 134.025 27.3667C133.014 27.3667 132.195 28.1849 132.195 29.1941C132.195 30.2034 133.014 31.0216 134.025 31.0216Z" fill="#5BBE0D"/>
<path d="M139.056 31.0216C140.067 31.0216 140.886 30.2034 140.886 29.1941C140.886 28.1849 140.067 27.3667 139.056 27.3667C138.046 27.3667 137.227 28.1849 137.227 29.1941C137.227 30.2034 138.046 31.0216 139.056 31.0216Z" fill="#5BBE0D"/>
<path d="M139.057 38.7881H130.823V43.3567H139.057V38.7881Z" fill="#5BBE0D"/>
<path d="M171.076 74.8799H130.823V79.4485H171.076V74.8799Z" fill="#5BBE0D"/>
<path d="M273.996 43.3569L314.249 43.3569V38.7883L273.996 38.7883V43.3569Z" fill="#F2F2F2"/>
<path d="M198.521 82.6465H130.823V85.3876H198.521V82.6465Z" fill="#F2F2F2"/>
<path d="M194.862 88.5859H130.823V91.3271H194.862V88.5859Z" fill="#F2F2F2"/>
<path d="M177.48 94.5249H130.823V97.266H177.48V94.5249Z" fill="#F2F2F2"/>
<path d="M172.906 175.846H146.375V178.587H172.906V175.846Z" fill="#F2F2F2"/>
<path d="M171.472 181.785H146.375V184.526H171.472V181.785Z" fill="#F2F2F2"/>
<path d="M164.66 187.724H146.375V190.465H164.66V187.724Z" fill="#F2F2F2"/>
<path d="M234.658 175.846H208.127V178.587H234.658V175.846Z" fill="#F2F2F2"/>
<path d="M233.224 181.785H208.127V184.526H233.224V181.785Z" fill="#F2F2F2"/>
<path d="M226.412 187.724H208.127V190.465H226.412V187.724Z" fill="#F2F2F2"/>
<path d="M298.697 175.846H272.167V178.587H298.697V175.846Z" fill="#F2F2F2"/>
<path d="M297.263 181.785H272.167V184.526H297.263V181.785Z" fill="#F2F2F2"/>
<path d="M290.451 187.724H272.167V190.465H290.451V187.724Z" fill="#F2F2F2"/>
<path d="M227.797 279.552H187.543V284.121H227.797V279.552Z" fill="#5BBE0D"/>
<path d="M255.242 287.319H187.543V290.06H255.242V287.319Z" fill="#F2F2F2"/>
<path d="M251.583 293.258H187.543V295.999H251.583V293.258Z" fill="#F2F2F2"/>
<path d="M234.2 299.197H187.543V301.938H234.2V299.197Z" fill="#F2F2F2"/>
<path opacity="0.3" d="M302.128 124.221H142.945V125.134H302.128V124.221Z" fill="#5BBE0D"/>
<path opacity="0.3" d="M176.565 140.21H142.716V170.363H176.565V140.21Z" fill="#5BBE0D"/>
<path d="M238.317 140.21H204.468V170.363H238.317V140.21Z" fill="#3F3D56"/>
<path d="M302.356 140.21H268.507V170.363H302.356V140.21Z" fill="#3F3D56"/>
<path d="M216.982 170.236L216.536 170.228C216.545 169.734 216.825 158.093 221.413 154.875L221.669 155.24C217.266 158.328 216.985 170.118 216.982 170.236Z" fill="#5BBE0D"/>
<path d="M223.774 154.728C225.007 154.728 226.007 153.73 226.007 152.498C226.007 151.266 225.007 150.268 223.774 150.268C222.541 150.268 221.541 151.266 221.541 152.498C221.541 153.73 222.541 154.728 223.774 154.728Z" fill="#5BBE0D"/>
<path d="M223.323 160.372C222.161 160.737 220.924 160.79 219.736 160.527C220.49 159.567 221.507 158.846 222.662 158.45C223.818 158.054 225.064 158.001 226.249 158.296C225.473 159.232 224.463 159.948 223.323 160.372Z" fill="#5BBE0D"/>
<path d="M281.022 170.236L280.575 170.228C280.585 169.734 280.864 158.093 285.452 154.875L285.709 155.24C281.305 158.328 281.024 170.118 281.022 170.236Z" fill="#5BBE0D"/>
<path d="M287.813 154.728C289.046 154.728 290.046 153.73 290.046 152.498C290.046 151.266 289.046 150.268 287.813 150.268C286.58 150.268 285.58 151.266 285.58 152.498C285.58 153.73 286.58 154.728 287.813 154.728Z" fill="#5BBE0D"/>
<path d="M287.362 160.372C286.2 160.737 284.963 160.79 283.775 160.527C284.53 159.567 285.546 158.846 286.702 158.45C287.857 158.054 289.103 158.001 290.289 158.296C289.512 159.232 288.503 159.948 287.362 160.372V160.372Z" fill="#5BBE0D"/>
<path d="M171.076 227.927H130.823V232.496H171.076V227.927Z" fill="#5BBE0D"/>
<path d="M198.521 235.694H130.823V238.435H198.521V235.694Z" fill="#F2F2F2"/>
<path d="M194.862 241.633H130.823V244.374H194.862V241.633Z" fill="#F2F2F2"/>
<path d="M177.48 247.572H130.823V250.313H177.48V247.572Z" fill="#F2F2F2"/>
<path opacity="0.4" d="M279.829 248.508C287.723 248.508 294.123 242.116 294.123 234.232C294.123 226.348 287.723 219.956 279.829 219.956C271.935 219.956 265.536 226.348 265.536 234.232C265.536 242.116 271.935 248.508 279.829 248.508Z" fill="#5BBE0D"/>
<path opacity="0.4" d="M253.376 251.064C258.913 251.064 263.402 246.581 263.402 241.05C263.402 235.519 258.913 231.036 253.376 231.036C247.838 231.036 243.349 235.519 243.349 241.05C243.349 246.581 247.838 251.064 253.376 251.064Z" fill="#5BBE0D"/>
<path d="M76.6183 302.167C96.5759 302.167 112.755 286.008 112.755 266.075C112.755 246.142 96.5759 229.983 76.6183 229.983C56.6608 229.983 40.4819 246.142 40.4819 266.075C40.4819 286.008 56.6608 302.167 76.6183 302.167Z" fill="#2F2E41"/>
<path d="M71.1293 294.4H60.1511V314.045H71.1293V294.4Z" fill="#2F2E41"/>
<path d="M93.0855 294.4H82.1074V314.045H93.0855V294.4Z" fill="#2F2E41"/>
<path d="M69.2996 317.7C74.3521 317.7 78.448 316.166 78.448 314.274C78.448 312.381 74.3521 310.847 69.2996 310.847C64.247 310.847 60.1511 312.381 60.1511 314.274C60.1511 316.166 64.247 317.7 69.2996 317.7Z" fill="#2F2E41"/>
<path d="M91.2558 317.243C96.3084 317.243 100.404 315.709 100.404 313.817C100.404 311.924 96.3084 310.39 91.2558 310.39C86.2033 310.39 82.1074 311.924 82.1074 313.817C82.1074 315.709 86.2033 317.243 91.2558 317.243Z" fill="#2F2E41"/>
<path d="M77.5332 269.273C84.3541 269.273 89.8836 263.75 89.8836 256.938C89.8836 250.125 84.3541 244.603 77.5332 244.603C70.7122 244.603 65.1827 250.125 65.1827 256.938C65.1827 263.75 70.7122 269.273 77.5332 269.273Z" fill="white"/>
<path d="M77.5332 255.567C79.8068 255.567 81.65 253.726 81.65 251.455C81.65 249.185 79.8068 247.344 77.5332 247.344C75.2595 247.344 73.4164 249.185 73.4164 251.455C73.4164 253.726 75.2595 255.567 77.5332 255.567Z" fill="#3F3D56"/>
<path d="M41.5648 232.511C38.647 219.459 47.9742 206.271 62.3977 203.055C76.8212 199.838 90.8791 207.811 93.797 220.862C96.7149 233.913 87.1559 238.727 72.7323 241.943C58.3088 245.16 44.4827 245.562 41.5648 232.511Z" fill="#5BBE0D"/>
<path d="M109.105 228.526C113.31 219.487 114.416 211.091 111.575 209.773C108.734 208.454 103.023 214.713 98.8175 223.751C94.6124 232.789 93.5065 241.185 96.3474 242.504C99.1884 243.822 104.9 237.564 109.105 228.526Z" fill="#2F2E41"/>
<path d="M46.0879 253.053C48.8566 251.589 47.3166 243.261 42.6483 234.453C37.9799 225.644 31.951 219.69 29.1823 221.154C26.4136 222.618 27.9536 230.945 32.6219 239.754C37.2902 248.562 43.3192 254.516 46.0879 253.053Z" fill="#2F2E41"/>
<path d="M381.586 256.073C384.509 254.948 383.97 246.497 380.381 237.197C376.792 227.898 371.513 221.271 368.59 222.396C365.667 223.521 366.207 231.972 369.795 241.272C373.384 250.572 378.663 257.198 381.586 256.073Z" fill="#2F2E41"/>
<path d="M408.565 302.487C428.523 302.487 444.702 286.328 444.702 266.395C444.702 246.463 428.523 230.304 408.565 230.304C388.608 230.304 372.429 246.463 372.429 266.395C372.429 286.328 388.608 302.487 408.565 302.487Z" fill="#2F2E41"/>
<path d="M414.187 314.349L425.166 314.318L425.11 294.673L414.132 294.704L414.187 314.349Z" fill="#2F2E41"/>
<path d="M392.233 314.412L403.211 314.381L403.156 294.736L392.177 294.767L392.233 314.412Z" fill="#2F2E41"/>
<path d="M416.029 318C421.081 317.986 425.173 316.44 425.168 314.548C425.162 312.656 421.062 311.133 416.01 311.147C410.957 311.161 406.866 312.707 406.871 314.599C406.876 316.492 410.976 318.014 416.029 318Z" fill="#2F2E41"/>
<path d="M394.071 317.605C399.124 317.59 403.215 316.045 403.21 314.153C403.205 312.26 399.105 310.738 394.052 310.752C389 310.766 384.908 312.311 384.913 314.204C384.919 316.096 389.019 317.619 394.071 317.605Z" fill="#2F2E41"/>
<path d="M407.625 269.596C414.446 269.596 419.975 264.073 419.975 257.261C419.975 250.448 414.446 244.926 407.625 244.926C400.804 244.926 395.274 250.448 395.274 257.261C395.274 264.073 400.804 269.596 407.625 269.596Z" fill="white"/>
<path d="M407.625 261.373C409.898 261.373 411.742 259.532 411.742 257.261C411.742 254.99 409.898 253.149 407.625 253.149C405.351 253.149 403.508 254.99 403.508 257.261C403.508 259.532 405.351 261.373 407.625 261.373Z" fill="#3F3D56"/>
<path d="M443.525 232.734C446.406 219.674 437.042 206.512 422.609 203.336C408.177 200.16 394.141 208.172 391.26 221.231C388.379 234.291 397.951 239.077 412.384 242.254C426.816 245.43 440.643 245.793 443.525 232.734Z" fill="#5BBE0D"/>
<path d="M451.665 254.647C460.669 250.351 466.873 244.579 465.523 241.756C464.173 238.933 455.779 240.127 446.775 244.423C437.771 248.719 431.566 254.491 432.916 257.314C434.267 260.137 442.661 258.943 451.665 254.647Z" fill="#2F2E41"/>
<path d="M426.352 279.366C426.362 282.899 417.275 289.899 407.169 289.928C397.064 289.956 387.562 280.038 387.552 276.505C387.542 272.973 397.029 277.164 407.134 277.136C417.239 277.107 426.342 275.834 426.352 279.366Z" fill="white"/>
<path opacity="0.4" d="M419.57 264.498C447.422 264.498 470 241.948 470 214.13C470 186.313 447.422 163.763 419.57 163.763C391.718 163.763 369.14 186.313 369.14 214.13C369.14 241.948 391.718 264.498 419.57 264.498Z" fill="#5BBE0D"/>
<path d="M87.0955 195.348C107.053 195.348 123.232 179.189 123.232 159.256C123.232 139.323 107.053 123.165 87.0955 123.165C67.1379 123.165 50.9591 139.323 50.9591 159.256C50.9591 179.189 67.1379 195.348 87.0955 195.348Z" fill="#2F2E41"/>
<path d="M76.6423 186.152L65.8397 184.199L62.336 203.529L73.1386 205.483L76.6423 186.152Z" fill="#2F2E41"/>
<path d="M98.2475 190.058L87.4449 188.105L83.9411 207.436L94.7437 209.389L98.2475 190.058Z" fill="#2F2E41"/>
<path d="M98.2075 216.747C99.432 215.303 97.2991 211.489 93.4434 208.227C89.5878 204.966 85.4695 203.493 84.245 204.937C83.0205 206.381 85.1535 210.196 89.0091 213.457C92.8648 216.718 96.9831 218.191 98.2075 216.747Z" fill="#2F2E41"/>
<path d="M77.0525 212.922C78.277 211.478 76.1441 207.664 72.2884 204.403C68.4328 201.141 64.3145 199.668 63.09 201.112C61.8655 202.556 63.9985 206.371 67.8541 209.632C71.7098 212.893 75.828 214.367 77.0525 212.922Z" fill="#2F2E41"/>
<path d="M89.6254 162.763C96.4463 162.763 101.976 157.24 101.976 150.428C101.976 143.615 96.4463 138.093 89.6254 138.093C82.8044 138.093 77.275 143.615 77.275 150.428C77.275 157.24 82.8044 162.763 89.6254 162.763Z" fill="white"/>
<path d="M94.7013 150.118C96.975 150.118 98.8181 148.277 98.8181 146.006C98.8181 143.735 96.975 141.895 94.7013 141.895C92.4277 141.895 90.5845 143.735 90.5845 146.006C90.5845 148.277 92.4277 150.118 94.7013 150.118Z" fill="#3F3D56"/>
<path d="M58.5889 119.992C58.0455 106.631 69.5756 95.3133 84.3421 94.7142C99.1087 94.1151 111.52 104.461 112.063 117.823C112.607 131.185 102.342 134.221 87.5756 134.82C72.809 135.419 59.1324 133.354 58.5889 119.992Z" fill="#5BBE0D"/>
<path d="M121.73 158.203C131.456 155.976 138.774 151.699 138.074 148.649C137.374 145.599 128.922 144.932 119.195 147.159C109.469 149.386 102.151 153.663 102.851 156.713C103.551 159.763 112.003 160.43 121.73 158.203Z" fill="#2F2E41"/>
<path d="M50.7954 169.985C60.5219 167.758 67.8395 163.481 67.1396 160.431C66.4397 157.381 57.9874 156.714 48.2608 158.941C38.5343 161.168 31.2167 165.445 31.9166 168.495C32.6165 171.544 41.0689 172.211 50.7954 169.985Z" fill="#2F2E41"/>
<path d="M77.1707 173.48C76.7817 175.626 77.2622 177.838 78.5066 179.63C79.7509 181.423 81.6571 182.648 83.8059 183.036C85.9547 183.425 88.17 182.945 89.9644 181.702C91.7589 180.459 92.9855 178.555 93.3745 176.409C94.1845 171.94 90.725 170.359 86.2504 169.55C81.7758 168.741 77.9807 169.011 77.1707 173.48Z" fill="white"/>
<path d="M172.182 129.939L139.759 120.23L131.089 149.113L163.513 158.821L172.182 129.939Z" fill="#3F3D56"/>
<path d="M143.113 152.58L142.688 152.444C142.839 151.974 146.453 140.903 151.773 139.137L151.914 139.56C146.809 141.255 143.149 152.467 143.113 152.58Z" fill="#5BBE0D"/>
<path d="M154.719 139.767C155.952 139.767 156.951 138.768 156.951 137.537C156.951 136.305 155.952 135.307 154.719 135.307C153.485 135.307 152.486 136.305 152.486 137.537C152.486 138.768 153.485 139.767 154.719 139.767Z" fill="#5BBE0D"/>
<path d="M152.022 144.95C150.805 144.966 149.605 144.663 148.542 144.07C149.541 143.367 150.722 142.968 151.942 142.92C153.163 142.872 154.372 143.178 155.423 143.801C154.41 144.475 153.237 144.871 152.022 144.95V144.95Z" fill="#5BBE0D"/>
</g>
<defs>
<clipPath id="clip0">
<rect width="470" height="318" fill="white"/>
</clipPath>
</defs>
</svg>
